%TF.GenerationSoftware,KiCad,Pcbnew,8.0.8+dfsg-1*%
%TF.CreationDate,2025-02-13T13:44:32+01:00*%
%TF.ProjectId,DigiKitkat,44696769-4b69-4746-9b61-742e6b696361,rev?*%
%TF.SameCoordinates,Original*%
%TF.FileFunction,Legend,Bot*%
%TF.FilePolarity,Positive*%
%FSLAX46Y46*%
G04 Gerber Fmt 4.6, Leading zero omitted, Abs format (unit mm)*
G04 Created by KiCad (PCBNEW 8.0.8+dfsg-1) date 2025-02-13 13:44:32*
%MOMM*%
%LPD*%
G01*
G04 APERTURE LIST*
%ADD10C,0.152000*%
%ADD11C,0.200000*%
G04 APERTURE END LIST*
D10*
X156875320Y-111302776D02*
X156875320Y-110969443D01*
X156675320Y-111369443D02*
X157375320Y-111136110D01*
X157375320Y-111136110D02*
X156675320Y-110902776D01*
X156675320Y-110269443D02*
X157008654Y-110502776D01*
X156675320Y-110669443D02*
X157375320Y-110669443D01*
X157375320Y-110669443D02*
X157375320Y-110402776D01*
X157375320Y-110402776D02*
X157341987Y-110336110D01*
X157341987Y-110336110D02*
X157308654Y-110302776D01*
X157308654Y-110302776D02*
X157241987Y-110269443D01*
X157241987Y-110269443D02*
X157141987Y-110269443D01*
X157141987Y-110269443D02*
X157075320Y-110302776D01*
X157075320Y-110302776D02*
X157041987Y-110336110D01*
X157041987Y-110336110D02*
X157008654Y-110402776D01*
X157008654Y-110402776D02*
X157008654Y-110669443D01*
X157041987Y-109969443D02*
X157041987Y-109736110D01*
X156675320Y-109636110D02*
X156675320Y-109969443D01*
X156675320Y-109969443D02*
X157375320Y-109969443D01*
X157375320Y-109969443D02*
X157375320Y-109636110D01*
X157041987Y-109102777D02*
X157041987Y-109336110D01*
X156675320Y-109336110D02*
X157375320Y-109336110D01*
X157375320Y-109336110D02*
X157375320Y-109002777D01*
X156675320Y-107919443D02*
X157375320Y-107919443D01*
X157375320Y-107919443D02*
X157375320Y-107752776D01*
X157375320Y-107752776D02*
X157341987Y-107652776D01*
X157341987Y-107652776D02*
X157275320Y-107586110D01*
X157275320Y-107586110D02*
X157208654Y-107552776D01*
X157208654Y-107552776D02*
X157075320Y-107519443D01*
X157075320Y-107519443D02*
X156975320Y-107519443D01*
X156975320Y-107519443D02*
X156841987Y-107552776D01*
X156841987Y-107552776D02*
X156775320Y-107586110D01*
X156775320Y-107586110D02*
X156708654Y-107652776D01*
X156708654Y-107652776D02*
X156675320Y-107752776D01*
X156675320Y-107752776D02*
X156675320Y-107919443D01*
X157375320Y-107086110D02*
X157375320Y-107019443D01*
X157375320Y-107019443D02*
X157341987Y-106952776D01*
X157341987Y-106952776D02*
X157308654Y-106919443D01*
X157308654Y-106919443D02*
X157241987Y-106886110D01*
X157241987Y-106886110D02*
X157108654Y-106852776D01*
X157108654Y-106852776D02*
X156941987Y-106852776D01*
X156941987Y-106852776D02*
X156808654Y-106886110D01*
X156808654Y-106886110D02*
X156741987Y-106919443D01*
X156741987Y-106919443D02*
X156708654Y-106952776D01*
X156708654Y-106952776D02*
X156675320Y-107019443D01*
X156675320Y-107019443D02*
X156675320Y-107086110D01*
X156675320Y-107086110D02*
X156708654Y-107152776D01*
X156708654Y-107152776D02*
X156741987Y-107186110D01*
X156741987Y-107186110D02*
X156808654Y-107219443D01*
X156808654Y-107219443D02*
X156941987Y-107252776D01*
X156941987Y-107252776D02*
X157108654Y-107252776D01*
X157108654Y-107252776D02*
X157241987Y-107219443D01*
X157241987Y-107219443D02*
X157308654Y-107186110D01*
X157308654Y-107186110D02*
X157341987Y-107152776D01*
X157341987Y-107152776D02*
X157375320Y-107086110D01*
X156675320Y-105719443D02*
X157375320Y-105719443D01*
X157375320Y-105719443D02*
X157375320Y-105552776D01*
X157375320Y-105552776D02*
X157341987Y-105452776D01*
X157341987Y-105452776D02*
X157275320Y-105386110D01*
X157275320Y-105386110D02*
X157208654Y-105352776D01*
X157208654Y-105352776D02*
X157075320Y-105319443D01*
X157075320Y-105319443D02*
X156975320Y-105319443D01*
X156975320Y-105319443D02*
X156841987Y-105352776D01*
X156841987Y-105352776D02*
X156775320Y-105386110D01*
X156775320Y-105386110D02*
X156708654Y-105452776D01*
X156708654Y-105452776D02*
X156675320Y-105552776D01*
X156675320Y-105552776D02*
X156675320Y-105719443D01*
X157408654Y-104519443D02*
X156508654Y-105119443D01*
X156875320Y-104319443D02*
X156875320Y-103986110D01*
X156675320Y-104386110D02*
X157375320Y-104152777D01*
X157375320Y-104152777D02*
X156675320Y-103919443D01*
X156675320Y-103079723D02*
X157375320Y-103079723D01*
X157375320Y-103079723D02*
X157375320Y-102913056D01*
X157375320Y-102913056D02*
X157341987Y-102813056D01*
X157341987Y-102813056D02*
X157275320Y-102746390D01*
X157275320Y-102746390D02*
X157208654Y-102713056D01*
X157208654Y-102713056D02*
X157075320Y-102679723D01*
X157075320Y-102679723D02*
X156975320Y-102679723D01*
X156975320Y-102679723D02*
X156841987Y-102713056D01*
X156841987Y-102713056D02*
X156775320Y-102746390D01*
X156775320Y-102746390D02*
X156708654Y-102813056D01*
X156708654Y-102813056D02*
X156675320Y-102913056D01*
X156675320Y-102913056D02*
X156675320Y-103079723D01*
X157408654Y-101879723D02*
X156508654Y-102479723D01*
X156875320Y-101679723D02*
X156875320Y-101346390D01*
X156675320Y-101746390D02*
X157375320Y-101513057D01*
X157375320Y-101513057D02*
X156675320Y-101279723D01*
X156675320Y-100461323D02*
X157375320Y-100461323D01*
X157375320Y-100461323D02*
X157375320Y-100194656D01*
X157375320Y-100194656D02*
X157341987Y-100127990D01*
X157341987Y-100127990D02*
X157308654Y-100094656D01*
X157308654Y-100094656D02*
X157241987Y-100061323D01*
X157241987Y-100061323D02*
X157141987Y-100061323D01*
X157141987Y-100061323D02*
X157075320Y-100094656D01*
X157075320Y-100094656D02*
X157041987Y-100127990D01*
X157041987Y-100127990D02*
X157008654Y-100194656D01*
X157008654Y-100194656D02*
X157008654Y-100461323D01*
X157375320Y-99827990D02*
X156675320Y-99661323D01*
X156675320Y-99661323D02*
X157175320Y-99527990D01*
X157175320Y-99527990D02*
X156675320Y-99394656D01*
X156675320Y-99394656D02*
X157375320Y-99227990D01*
X156675320Y-98961323D02*
X157375320Y-98961323D01*
X157375320Y-98961323D02*
X156875320Y-98727990D01*
X156875320Y-98727990D02*
X157375320Y-98494656D01*
X157375320Y-98494656D02*
X156675320Y-98494656D01*
X156675320Y-97840293D02*
X157375320Y-97840293D01*
X157375320Y-97840293D02*
X157375320Y-97673626D01*
X157375320Y-97673626D02*
X157341987Y-97573626D01*
X157341987Y-97573626D02*
X157275320Y-97506960D01*
X157275320Y-97506960D02*
X157208654Y-97473626D01*
X157208654Y-97473626D02*
X157075320Y-97440293D01*
X157075320Y-97440293D02*
X156975320Y-97440293D01*
X156975320Y-97440293D02*
X156841987Y-97473626D01*
X156841987Y-97473626D02*
X156775320Y-97506960D01*
X156775320Y-97506960D02*
X156708654Y-97573626D01*
X156708654Y-97573626D02*
X156675320Y-97673626D01*
X156675320Y-97673626D02*
X156675320Y-97840293D01*
X157408654Y-96640293D02*
X156508654Y-97240293D01*
X156875320Y-96440293D02*
X156875320Y-96106960D01*
X156675320Y-96506960D02*
X157375320Y-96273627D01*
X157375320Y-96273627D02*
X156675320Y-96040293D01*
X154579550Y-100111443D02*
X155279550Y-100111443D01*
X155279550Y-100111443D02*
X155279550Y-99944776D01*
X155279550Y-99944776D02*
X155246217Y-99844776D01*
X155246217Y-99844776D02*
X155179550Y-99778110D01*
X155179550Y-99778110D02*
X155112884Y-99744776D01*
X155112884Y-99744776D02*
X154979550Y-99711443D01*
X154979550Y-99711443D02*
X154879550Y-99711443D01*
X154879550Y-99711443D02*
X154746217Y-99744776D01*
X154746217Y-99744776D02*
X154679550Y-99778110D01*
X154679550Y-99778110D02*
X154612884Y-99844776D01*
X154612884Y-99844776D02*
X154579550Y-99944776D01*
X154579550Y-99944776D02*
X154579550Y-100111443D01*
X154846217Y-99411443D02*
X154846217Y-98878110D01*
X155642700Y-102729833D02*
X156342700Y-102729833D01*
X156342700Y-102729833D02*
X156342700Y-102563166D01*
X156342700Y-102563166D02*
X156309367Y-102463166D01*
X156309367Y-102463166D02*
X156242700Y-102396500D01*
X156242700Y-102396500D02*
X156176034Y-102363166D01*
X156176034Y-102363166D02*
X156042700Y-102329833D01*
X156042700Y-102329833D02*
X155942700Y-102329833D01*
X155942700Y-102329833D02*
X155809367Y-102363166D01*
X155809367Y-102363166D02*
X155742700Y-102396500D01*
X155742700Y-102396500D02*
X155676034Y-102463166D01*
X155676034Y-102463166D02*
X155642700Y-102563166D01*
X155642700Y-102563166D02*
X155642700Y-102729833D01*
X155909367Y-102029833D02*
X155909367Y-101496500D01*
X155642700Y-101763166D02*
X156176034Y-101763166D01*
X155642710Y-100461323D02*
X156342710Y-100461323D01*
X156342710Y-100461323D02*
X156342710Y-100294656D01*
X156342710Y-100294656D02*
X156309377Y-100194656D01*
X156309377Y-100194656D02*
X156242710Y-100127990D01*
X156242710Y-100127990D02*
X156176044Y-100094656D01*
X156176044Y-100094656D02*
X156042710Y-100061323D01*
X156042710Y-100061323D02*
X155942710Y-100061323D01*
X155942710Y-100061323D02*
X155809377Y-100094656D01*
X155809377Y-100094656D02*
X155742710Y-100127990D01*
X155742710Y-100127990D02*
X155676044Y-100194656D01*
X155676044Y-100194656D02*
X155642710Y-100294656D01*
X155642710Y-100294656D02*
X155642710Y-100461323D01*
X156376044Y-99261323D02*
X155476044Y-99861323D01*
X155842710Y-99061323D02*
X155842710Y-98727990D01*
X155642710Y-99127990D02*
X156342710Y-98894657D01*
X156342710Y-98894657D02*
X155642710Y-98661323D01*
X155642710Y-108269323D02*
X156342710Y-108269323D01*
X156342710Y-108269323D02*
X156342710Y-108002656D01*
X156342710Y-108002656D02*
X156309377Y-107935990D01*
X156309377Y-107935990D02*
X156276044Y-107902656D01*
X156276044Y-107902656D02*
X156209377Y-107869323D01*
X156209377Y-107869323D02*
X156109377Y-107869323D01*
X156109377Y-107869323D02*
X156042710Y-107902656D01*
X156042710Y-107902656D02*
X156009377Y-107935990D01*
X156009377Y-107935990D02*
X155976044Y-108002656D01*
X155976044Y-108002656D02*
X155976044Y-108269323D01*
X156342710Y-107635990D02*
X155642710Y-107469323D01*
X155642710Y-107469323D02*
X156142710Y-107335990D01*
X156142710Y-107335990D02*
X155642710Y-107202656D01*
X155642710Y-107202656D02*
X156342710Y-107035990D01*
X155642710Y-106769323D02*
X156342710Y-106769323D01*
X156342710Y-106769323D02*
X155842710Y-106535990D01*
X155842710Y-106535990D02*
X156342710Y-106302656D01*
X156342710Y-106302656D02*
X155642710Y-106302656D01*
X155676034Y-105752776D02*
X155642700Y-105652776D01*
X155642700Y-105652776D02*
X155642700Y-105486110D01*
X155642700Y-105486110D02*
X155676034Y-105419443D01*
X155676034Y-105419443D02*
X155709367Y-105386110D01*
X155709367Y-105386110D02*
X155776034Y-105352776D01*
X155776034Y-105352776D02*
X155842700Y-105352776D01*
X155842700Y-105352776D02*
X155909367Y-105386110D01*
X155909367Y-105386110D02*
X155942700Y-105419443D01*
X155942700Y-105419443D02*
X155976034Y-105486110D01*
X155976034Y-105486110D02*
X156009367Y-105619443D01*
X156009367Y-105619443D02*
X156042700Y-105686110D01*
X156042700Y-105686110D02*
X156076034Y-105719443D01*
X156076034Y-105719443D02*
X156142700Y-105752776D01*
X156142700Y-105752776D02*
X156209367Y-105752776D01*
X156209367Y-105752776D02*
X156276034Y-105719443D01*
X156276034Y-105719443D02*
X156309367Y-105686110D01*
X156309367Y-105686110D02*
X156342700Y-105619443D01*
X156342700Y-105619443D02*
X156342700Y-105452776D01*
X156342700Y-105452776D02*
X156309367Y-105352776D01*
X155709367Y-104652776D02*
X155676034Y-104686109D01*
X155676034Y-104686109D02*
X155642700Y-104786109D01*
X155642700Y-104786109D02*
X155642700Y-104852776D01*
X155642700Y-104852776D02*
X155676034Y-104952776D01*
X155676034Y-104952776D02*
X155742700Y-105019443D01*
X155742700Y-105019443D02*
X155809367Y-105052776D01*
X155809367Y-105052776D02*
X155942700Y-105086109D01*
X155942700Y-105086109D02*
X156042700Y-105086109D01*
X156042700Y-105086109D02*
X156176034Y-105052776D01*
X156176034Y-105052776D02*
X156242700Y-105019443D01*
X156242700Y-105019443D02*
X156309367Y-104952776D01*
X156309367Y-104952776D02*
X156342700Y-104852776D01*
X156342700Y-104852776D02*
X156342700Y-104786109D01*
X156342700Y-104786109D02*
X156309367Y-104686109D01*
X156309367Y-104686109D02*
X156276034Y-104652776D01*
X155642700Y-104352776D02*
X156342700Y-104352776D01*
X155642700Y-103952776D02*
X156042700Y-104252776D01*
X156342700Y-103952776D02*
X155942700Y-104352776D01*
X155676044Y-110952886D02*
X155642710Y-110852886D01*
X155642710Y-110852886D02*
X155642710Y-110686220D01*
X155642710Y-110686220D02*
X155676044Y-110619553D01*
X155676044Y-110619553D02*
X155709377Y-110586220D01*
X155709377Y-110586220D02*
X155776044Y-110552886D01*
X155776044Y-110552886D02*
X155842710Y-110552886D01*
X155842710Y-110552886D02*
X155909377Y-110586220D01*
X155909377Y-110586220D02*
X155942710Y-110619553D01*
X155942710Y-110619553D02*
X155976044Y-110686220D01*
X155976044Y-110686220D02*
X156009377Y-110819553D01*
X156009377Y-110819553D02*
X156042710Y-110886220D01*
X156042710Y-110886220D02*
X156076044Y-110919553D01*
X156076044Y-110919553D02*
X156142710Y-110952886D01*
X156142710Y-110952886D02*
X156209377Y-110952886D01*
X156209377Y-110952886D02*
X156276044Y-110919553D01*
X156276044Y-110919553D02*
X156309377Y-110886220D01*
X156309377Y-110886220D02*
X156342710Y-110819553D01*
X156342710Y-110819553D02*
X156342710Y-110652886D01*
X156342710Y-110652886D02*
X156309377Y-110552886D01*
X155642710Y-110252886D02*
X156342710Y-110252886D01*
X156342710Y-110252886D02*
X156342710Y-110086219D01*
X156342710Y-110086219D02*
X156309377Y-109986219D01*
X156309377Y-109986219D02*
X156242710Y-109919553D01*
X156242710Y-109919553D02*
X156176044Y-109886219D01*
X156176044Y-109886219D02*
X156042710Y-109852886D01*
X156042710Y-109852886D02*
X155942710Y-109852886D01*
X155942710Y-109852886D02*
X155809377Y-109886219D01*
X155809377Y-109886219D02*
X155742710Y-109919553D01*
X155742710Y-109919553D02*
X155676044Y-109986219D01*
X155676044Y-109986219D02*
X155642710Y-110086219D01*
X155642710Y-110086219D02*
X155642710Y-110252886D01*
X155842710Y-109586219D02*
X155842710Y-109252886D01*
X155642710Y-109652886D02*
X156342710Y-109419553D01*
X156342710Y-109419553D02*
X155642710Y-109186219D01*
X146763500Y-110428279D02*
X147096833Y-110428279D01*
X147096833Y-110428279D02*
X147130166Y-110761612D01*
X147130166Y-110761612D02*
X147096833Y-110728279D01*
X147096833Y-110728279D02*
X147030166Y-110694946D01*
X147030166Y-110694946D02*
X146863500Y-110694946D01*
X146863500Y-110694946D02*
X146796833Y-110728279D01*
X146796833Y-110728279D02*
X146763500Y-110761612D01*
X146763500Y-110761612D02*
X146730166Y-110828279D01*
X146730166Y-110828279D02*
X146730166Y-110994946D01*
X146730166Y-110994946D02*
X146763500Y-111061612D01*
X146763500Y-111061612D02*
X146796833Y-111094946D01*
X146796833Y-111094946D02*
X146863500Y-111128279D01*
X146863500Y-111128279D02*
X147030166Y-111128279D01*
X147030166Y-111128279D02*
X147096833Y-111094946D01*
X147096833Y-111094946D02*
X147130166Y-111061612D01*
X146530166Y-110428279D02*
X146296833Y-111128279D01*
X146296833Y-111128279D02*
X146063499Y-110428279D01*
X149580166Y-110511612D02*
X149646833Y-110478279D01*
X149646833Y-110478279D02*
X149746833Y-110478279D01*
X149746833Y-110478279D02*
X149846833Y-110511612D01*
X149846833Y-110511612D02*
X149913500Y-110578279D01*
X149913500Y-110578279D02*
X149946833Y-110644946D01*
X149946833Y-110644946D02*
X149980166Y-110778279D01*
X149980166Y-110778279D02*
X149980166Y-110878279D01*
X149980166Y-110878279D02*
X149946833Y-111011612D01*
X149946833Y-111011612D02*
X149913500Y-111078279D01*
X149913500Y-111078279D02*
X149846833Y-111144946D01*
X149846833Y-111144946D02*
X149746833Y-111178279D01*
X149746833Y-111178279D02*
X149680166Y-111178279D01*
X149680166Y-111178279D02*
X149580166Y-111144946D01*
X149580166Y-111144946D02*
X149546833Y-111111612D01*
X149546833Y-111111612D02*
X149546833Y-110878279D01*
X149546833Y-110878279D02*
X149680166Y-110878279D01*
X149246833Y-111178279D02*
X149246833Y-110478279D01*
X149246833Y-110478279D02*
X148846833Y-111178279D01*
X148846833Y-111178279D02*
X148846833Y-110478279D01*
X148513500Y-111178279D02*
X148513500Y-110478279D01*
X148513500Y-110478279D02*
X148346833Y-110478279D01*
X148346833Y-110478279D02*
X148246833Y-110511612D01*
X148246833Y-110511612D02*
X148180167Y-110578279D01*
X148180167Y-110578279D02*
X148146833Y-110644946D01*
X148146833Y-110644946D02*
X148113500Y-110778279D01*
X148113500Y-110778279D02*
X148113500Y-110878279D01*
X148113500Y-110878279D02*
X148146833Y-111011612D01*
X148146833Y-111011612D02*
X148180167Y-111078279D01*
X148180167Y-111078279D02*
X148246833Y-111144946D01*
X148246833Y-111144946D02*
X148346833Y-111178279D01*
X148346833Y-111178279D02*
X148513500Y-111178279D01*
X152641193Y-110369769D02*
X152407860Y-111069769D01*
X152407860Y-111069769D02*
X152174526Y-110369769D01*
X151941193Y-111069769D02*
X151941193Y-110369769D01*
X151607860Y-111069769D02*
X151607860Y-110369769D01*
X151607860Y-110369769D02*
X151207860Y-111069769D01*
X151207860Y-111069769D02*
X151207860Y-110369769D01*
D11*
X146048207Y-97077842D02*
X146048207Y-95877842D01*
X146048207Y-96449271D02*
X145362493Y-96449271D01*
X145362493Y-97077842D02*
X145362493Y-95877842D01*
X144905350Y-95877842D02*
X144619636Y-97077842D01*
X144619636Y-97077842D02*
X144391064Y-96220700D01*
X144391064Y-96220700D02*
X144162493Y-97077842D01*
X144162493Y-97077842D02*
X143876779Y-95877842D01*
X151712493Y-106377842D02*
X152112493Y-105806414D01*
X152398207Y-106377842D02*
X152398207Y-105177842D01*
X152398207Y-105177842D02*
X151941064Y-105177842D01*
X151941064Y-105177842D02*
X151826779Y-105234985D01*
X151826779Y-105234985D02*
X151769636Y-105292128D01*
X151769636Y-105292128D02*
X151712493Y-105406414D01*
X151712493Y-105406414D02*
X151712493Y-105577842D01*
X151712493Y-105577842D02*
X151769636Y-105692128D01*
X151769636Y-105692128D02*
X151826779Y-105749271D01*
X151826779Y-105749271D02*
X151941064Y-105806414D01*
X151941064Y-105806414D02*
X152398207Y-105806414D01*
X151026779Y-106377842D02*
X151141064Y-106320700D01*
X151141064Y-106320700D02*
X151198207Y-106263557D01*
X151198207Y-106263557D02*
X151255350Y-106149271D01*
X151255350Y-106149271D02*
X151255350Y-105806414D01*
X151255350Y-105806414D02*
X151198207Y-105692128D01*
X151198207Y-105692128D02*
X151141064Y-105634985D01*
X151141064Y-105634985D02*
X151026779Y-105577842D01*
X151026779Y-105577842D02*
X150855350Y-105577842D01*
X150855350Y-105577842D02*
X150741064Y-105634985D01*
X150741064Y-105634985D02*
X150683922Y-105692128D01*
X150683922Y-105692128D02*
X150626779Y-105806414D01*
X150626779Y-105806414D02*
X150626779Y-106149271D01*
X150626779Y-106149271D02*
X150683922Y-106263557D01*
X150683922Y-106263557D02*
X150741064Y-106320700D01*
X150741064Y-106320700D02*
X150855350Y-106377842D01*
X150855350Y-106377842D02*
X151026779Y-106377842D01*
X150112493Y-106377842D02*
X150112493Y-105177842D01*
X150112493Y-105749271D02*
X149426779Y-105749271D01*
X149426779Y-106377842D02*
X149426779Y-105177842D01*
X148912493Y-106320700D02*
X148741065Y-106377842D01*
X148741065Y-106377842D02*
X148455350Y-106377842D01*
X148455350Y-106377842D02*
X148341065Y-106320700D01*
X148341065Y-106320700D02*
X148283922Y-106263557D01*
X148283922Y-106263557D02*
X148226779Y-106149271D01*
X148226779Y-106149271D02*
X148226779Y-106034985D01*
X148226779Y-106034985D02*
X148283922Y-105920700D01*
X148283922Y-105920700D02*
X148341065Y-105863557D01*
X148341065Y-105863557D02*
X148455350Y-105806414D01*
X148455350Y-105806414D02*
X148683922Y-105749271D01*
X148683922Y-105749271D02*
X148798207Y-105692128D01*
X148798207Y-105692128D02*
X148855350Y-105634985D01*
X148855350Y-105634985D02*
X148912493Y-105520700D01*
X148912493Y-105520700D02*
X148912493Y-105406414D01*
X148912493Y-105406414D02*
X148855350Y-105292128D01*
X148855350Y-105292128D02*
X148798207Y-105234985D01*
X148798207Y-105234985D02*
X148683922Y-105177842D01*
X148683922Y-105177842D02*
X148398207Y-105177842D01*
X148398207Y-105177842D02*
X148226779Y-105234985D01*
D10*
X157818580Y-97493043D02*
X158518580Y-97493043D01*
X158518580Y-97493043D02*
X158518580Y-97226376D01*
X158518580Y-97226376D02*
X158485247Y-97159710D01*
X158485247Y-97159710D02*
X158451914Y-97126376D01*
X158451914Y-97126376D02*
X158385247Y-97093043D01*
X158385247Y-97093043D02*
X158285247Y-97093043D01*
X158285247Y-97093043D02*
X158218580Y-97126376D01*
X158218580Y-97126376D02*
X158185247Y-97159710D01*
X158185247Y-97159710D02*
X158151914Y-97226376D01*
X158151914Y-97226376D02*
X158151914Y-97493043D01*
X158518580Y-96459710D02*
X158518580Y-96793043D01*
X158518580Y-96793043D02*
X158185247Y-96826376D01*
X158185247Y-96826376D02*
X158218580Y-96793043D01*
X158218580Y-96793043D02*
X158251914Y-96726376D01*
X158251914Y-96726376D02*
X158251914Y-96559710D01*
X158251914Y-96559710D02*
X158218580Y-96493043D01*
X158218580Y-96493043D02*
X158185247Y-96459710D01*
X158185247Y-96459710D02*
X158118580Y-96426376D01*
X158118580Y-96426376D02*
X157951914Y-96426376D01*
X157951914Y-96426376D02*
X157885247Y-96459710D01*
X157885247Y-96459710D02*
X157851914Y-96493043D01*
X157851914Y-96493043D02*
X157818580Y-96559710D01*
X157818580Y-96559710D02*
X157818580Y-96726376D01*
X157818580Y-96726376D02*
X157851914Y-96793043D01*
X157851914Y-96793043D02*
X157885247Y-96826376D01*
X157818580Y-100111443D02*
X158518580Y-100111443D01*
X158518580Y-100111443D02*
X158518580Y-99844776D01*
X158518580Y-99844776D02*
X158485247Y-99778110D01*
X158485247Y-99778110D02*
X158451914Y-99744776D01*
X158451914Y-99744776D02*
X158385247Y-99711443D01*
X158385247Y-99711443D02*
X158285247Y-99711443D01*
X158285247Y-99711443D02*
X158218580Y-99744776D01*
X158218580Y-99744776D02*
X158185247Y-99778110D01*
X158185247Y-99778110D02*
X158151914Y-99844776D01*
X158151914Y-99844776D02*
X158151914Y-100111443D01*
X158285247Y-99111443D02*
X157818580Y-99111443D01*
X158551914Y-99278110D02*
X158051914Y-99444776D01*
X158051914Y-99444776D02*
X158051914Y-99011443D01*
X157818580Y-102729833D02*
X158518580Y-102729833D01*
X158518580Y-102729833D02*
X158518580Y-102463166D01*
X158518580Y-102463166D02*
X158485247Y-102396500D01*
X158485247Y-102396500D02*
X158451914Y-102363166D01*
X158451914Y-102363166D02*
X158385247Y-102329833D01*
X158385247Y-102329833D02*
X158285247Y-102329833D01*
X158285247Y-102329833D02*
X158218580Y-102363166D01*
X158218580Y-102363166D02*
X158185247Y-102396500D01*
X158185247Y-102396500D02*
X158151914Y-102463166D01*
X158151914Y-102463166D02*
X158151914Y-102729833D01*
X158518580Y-102096500D02*
X158518580Y-101663166D01*
X158518580Y-101663166D02*
X158251914Y-101896500D01*
X158251914Y-101896500D02*
X158251914Y-101796500D01*
X158251914Y-101796500D02*
X158218580Y-101729833D01*
X158218580Y-101729833D02*
X158185247Y-101696500D01*
X158185247Y-101696500D02*
X158118580Y-101663166D01*
X158118580Y-101663166D02*
X157951914Y-101663166D01*
X157951914Y-101663166D02*
X157885247Y-101696500D01*
X157885247Y-101696500D02*
X157851914Y-101729833D01*
X157851914Y-101729833D02*
X157818580Y-101796500D01*
X157818580Y-101796500D02*
X157818580Y-101996500D01*
X157818580Y-101996500D02*
X157851914Y-102063166D01*
X157851914Y-102063166D02*
X157885247Y-102096500D01*
X157818580Y-105369553D02*
X158518580Y-105369553D01*
X158518580Y-105369553D02*
X158518580Y-105102886D01*
X158518580Y-105102886D02*
X158485247Y-105036220D01*
X158485247Y-105036220D02*
X158451914Y-105002886D01*
X158451914Y-105002886D02*
X158385247Y-104969553D01*
X158385247Y-104969553D02*
X158285247Y-104969553D01*
X158285247Y-104969553D02*
X158218580Y-105002886D01*
X158218580Y-105002886D02*
X158185247Y-105036220D01*
X158185247Y-105036220D02*
X158151914Y-105102886D01*
X158151914Y-105102886D02*
X158151914Y-105369553D01*
X158451914Y-104702886D02*
X158485247Y-104669553D01*
X158485247Y-104669553D02*
X158518580Y-104602886D01*
X158518580Y-104602886D02*
X158518580Y-104436220D01*
X158518580Y-104436220D02*
X158485247Y-104369553D01*
X158485247Y-104369553D02*
X158451914Y-104336220D01*
X158451914Y-104336220D02*
X158385247Y-104302886D01*
X158385247Y-104302886D02*
X158318580Y-104302886D01*
X158318580Y-104302886D02*
X158218580Y-104336220D01*
X158218580Y-104336220D02*
X157818580Y-104736220D01*
X157818580Y-104736220D02*
X157818580Y-104302886D01*
X157818580Y-110569663D02*
X158518580Y-110569663D01*
X158518580Y-110569663D02*
X158518580Y-110302996D01*
X158518580Y-110302996D02*
X158485247Y-110236330D01*
X158485247Y-110236330D02*
X158451914Y-110202996D01*
X158451914Y-110202996D02*
X158385247Y-110169663D01*
X158385247Y-110169663D02*
X158285247Y-110169663D01*
X158285247Y-110169663D02*
X158218580Y-110202996D01*
X158218580Y-110202996D02*
X158185247Y-110236330D01*
X158185247Y-110236330D02*
X158151914Y-110302996D01*
X158151914Y-110302996D02*
X158151914Y-110569663D01*
X158518580Y-109736330D02*
X158518580Y-109669663D01*
X158518580Y-109669663D02*
X158485247Y-109602996D01*
X158485247Y-109602996D02*
X158451914Y-109569663D01*
X158451914Y-109569663D02*
X158385247Y-109536330D01*
X158385247Y-109536330D02*
X158251914Y-109502996D01*
X158251914Y-109502996D02*
X158085247Y-109502996D01*
X158085247Y-109502996D02*
X157951914Y-109536330D01*
X157951914Y-109536330D02*
X157885247Y-109569663D01*
X157885247Y-109569663D02*
X157851914Y-109602996D01*
X157851914Y-109602996D02*
X157818580Y-109669663D01*
X157818580Y-109669663D02*
X157818580Y-109736330D01*
X157818580Y-109736330D02*
X157851914Y-109802996D01*
X157851914Y-109802996D02*
X157885247Y-109836330D01*
X157885247Y-109836330D02*
X157951914Y-109869663D01*
X157951914Y-109869663D02*
X158085247Y-109902996D01*
X158085247Y-109902996D02*
X158251914Y-109902996D01*
X158251914Y-109902996D02*
X158385247Y-109869663D01*
X158385247Y-109869663D02*
X158451914Y-109836330D01*
X158451914Y-109836330D02*
X158485247Y-109802996D01*
X158485247Y-109802996D02*
X158518580Y-109736330D01*
X157818580Y-107802813D02*
X158518580Y-107802813D01*
X158518580Y-107802813D02*
X158518580Y-107536146D01*
X158518580Y-107536146D02*
X158485247Y-107469480D01*
X158485247Y-107469480D02*
X158451914Y-107436146D01*
X158451914Y-107436146D02*
X158385247Y-107402813D01*
X158385247Y-107402813D02*
X158285247Y-107402813D01*
X158285247Y-107402813D02*
X158218580Y-107436146D01*
X158218580Y-107436146D02*
X158185247Y-107469480D01*
X158185247Y-107469480D02*
X158151914Y-107536146D01*
X158151914Y-107536146D02*
X158151914Y-107802813D01*
X157818580Y-106736146D02*
X157818580Y-107136146D01*
X157818580Y-106936146D02*
X158518580Y-106936146D01*
X158518580Y-106936146D02*
X158418580Y-107002813D01*
X158418580Y-107002813D02*
X158351914Y-107069480D01*
X158351914Y-107069480D02*
X158318580Y-107136146D01*
M02*
