%TF.GenerationSoftware,KiCad,Pcbnew,8.0.8+dfsg-1*%
%TF.CreationDate,2025-02-13T13:44:35+01:00*%
%TF.ProjectId,DigiKitkat,44696769-4b69-4746-9b61-742e6b696361,rev?*%
%TF.SameCoordinates,Original*%
%TF.FileFunction,Other,User*%
%FSLAX46Y46*%
G04 Gerber Fmt 4.6, Leading zero omitted, Abs format (unit mm)*
G04 Created by KiCad (PCBNEW 8.0.8+dfsg-1) date 2025-02-13 13:44:35*
%MOMM*%
%LPD*%
G01*
G04 APERTURE LIST*
%ADD10C,0.157500*%
%ADD11C,0.050800*%
%ADD12C,0.100000*%
G04 APERTURE END LIST*
D10*
G36*
X153643368Y-110304710D02*
G01*
X153677615Y-110309081D01*
X153708550Y-110316730D01*
X153740458Y-110329797D01*
X153767859Y-110347327D01*
X153771405Y-110350195D01*
X153793229Y-110372345D01*
X153811608Y-110401951D01*
X153821945Y-110431612D01*
X153826923Y-110464777D01*
X153827415Y-110480064D01*
X153824944Y-110513089D01*
X153817529Y-110543383D01*
X153803279Y-110574198D01*
X153787870Y-110595776D01*
X153763240Y-110619362D01*
X153733839Y-110637495D01*
X153703699Y-110649036D01*
X153678620Y-110654864D01*
X153851727Y-110914140D01*
X153756480Y-110914140D01*
X153597990Y-110664404D01*
X153408111Y-110664404D01*
X153408111Y-110914140D01*
X153325481Y-110914140D01*
X153325481Y-110599008D01*
X153408111Y-110599008D01*
X153607531Y-110599008D01*
X153638373Y-110597065D01*
X153668632Y-110590235D01*
X153696744Y-110576880D01*
X153708625Y-110567925D01*
X153728950Y-110543611D01*
X153740838Y-110513405D01*
X153744324Y-110480833D01*
X153740792Y-110449491D01*
X153728751Y-110420811D01*
X153708164Y-110398203D01*
X153679558Y-110381996D01*
X153647052Y-110373101D01*
X153612504Y-110369848D01*
X153604145Y-110369737D01*
X153408111Y-110369737D01*
X153408111Y-110599008D01*
X153325481Y-110599008D01*
X153325481Y-110303571D01*
X153612301Y-110303571D01*
X153643368Y-110304710D01*
G37*
G36*
X154344890Y-110713489D02*
G01*
X154342872Y-110748780D01*
X154336819Y-110781138D01*
X154326730Y-110810564D01*
X154309859Y-110841189D01*
X154287495Y-110867824D01*
X154260325Y-110889708D01*
X154228898Y-110906217D01*
X154198574Y-110916089D01*
X154165122Y-110922013D01*
X154128545Y-110923987D01*
X154097730Y-110922678D01*
X154064692Y-110917842D01*
X154034790Y-110909442D01*
X154004458Y-110895478D01*
X153990828Y-110886750D01*
X153967074Y-110866054D01*
X153948128Y-110841204D01*
X153933991Y-110812199D01*
X153924663Y-110779039D01*
X154003446Y-110769961D01*
X154015405Y-110800709D01*
X154036248Y-110828541D01*
X154064514Y-110847714D01*
X154094649Y-110857257D01*
X154130237Y-110860438D01*
X154163384Y-110857383D01*
X154195133Y-110846822D01*
X154221532Y-110828718D01*
X154228408Y-110821816D01*
X154247152Y-110794741D01*
X154258087Y-110765517D01*
X154263397Y-110731692D01*
X154263953Y-110715182D01*
X154261129Y-110683895D01*
X154251368Y-110653301D01*
X154234634Y-110627095D01*
X154228254Y-110620088D01*
X154203508Y-110600938D01*
X154173894Y-110588881D01*
X154143078Y-110584093D01*
X154131930Y-110583774D01*
X154099587Y-110586597D01*
X154072996Y-110593776D01*
X154044059Y-110608191D01*
X154018525Y-110627474D01*
X153942358Y-110627474D01*
X153962669Y-110303571D01*
X154309345Y-110303571D01*
X154309345Y-110369737D01*
X154033605Y-110369737D01*
X154021911Y-110559155D01*
X154048771Y-110542123D01*
X154078728Y-110529957D01*
X154111782Y-110522658D01*
X154143244Y-110520263D01*
X154147933Y-110520225D01*
X154180401Y-110522113D01*
X154215026Y-110529088D01*
X154246147Y-110541202D01*
X154273763Y-110558456D01*
X154291342Y-110573926D01*
X154312207Y-110598907D01*
X154327947Y-110626995D01*
X154338563Y-110658190D01*
X154344053Y-110692493D01*
X154344890Y-110713489D01*
G37*
G36*
X153865919Y-101867945D02*
G01*
X154055798Y-101867945D01*
X154055798Y-101618210D01*
X154138428Y-101618210D01*
X154138428Y-102228778D01*
X153851608Y-102228778D01*
X153820541Y-102227639D01*
X153786294Y-102223268D01*
X153755359Y-102215619D01*
X153723451Y-102202552D01*
X153696050Y-102185022D01*
X153692504Y-102182154D01*
X153670680Y-102160004D01*
X153652301Y-102130398D01*
X153641964Y-102100737D01*
X153636986Y-102067572D01*
X153636494Y-102052285D01*
X153636552Y-102051516D01*
X153719585Y-102051516D01*
X153723117Y-102082858D01*
X153735158Y-102111538D01*
X153755745Y-102134146D01*
X153784351Y-102150353D01*
X153816857Y-102159248D01*
X153851405Y-102162501D01*
X153859764Y-102162612D01*
X154055798Y-102162612D01*
X154055798Y-101933341D01*
X153856378Y-101933341D01*
X153825536Y-101935284D01*
X153795277Y-101942114D01*
X153767165Y-101955469D01*
X153755284Y-101964424D01*
X153734959Y-101988738D01*
X153723071Y-102018944D01*
X153719585Y-102051516D01*
X153636552Y-102051516D01*
X153638965Y-102019260D01*
X153646380Y-101988966D01*
X153660630Y-101958151D01*
X153676039Y-101936573D01*
X153700669Y-101912987D01*
X153730070Y-101894854D01*
X153760210Y-101883313D01*
X153785289Y-101877485D01*
X153612182Y-101618210D01*
X153707429Y-101618210D01*
X153865919Y-101867945D01*
G37*
G36*
X153267045Y-101753772D02*
G01*
X153554480Y-101753772D01*
X153554480Y-101814705D01*
X153275354Y-102228778D01*
X153193494Y-102228778D01*
X153193494Y-102140916D01*
X153267045Y-102140916D01*
X153279201Y-102117681D01*
X153294884Y-102090572D01*
X153295973Y-102088907D01*
X153452308Y-101856251D01*
X153475697Y-101823938D01*
X153482621Y-101815167D01*
X153267045Y-101815167D01*
X153267045Y-102140916D01*
X153193494Y-102140916D01*
X153193494Y-101815167D01*
X153107786Y-101815167D01*
X153107786Y-101753772D01*
X153193494Y-101753772D01*
X153193494Y-101618210D01*
X153267045Y-101618210D01*
X153267045Y-101753772D01*
G37*
G36*
X146193128Y-101807400D02*
G01*
X146227375Y-101811771D01*
X146258310Y-101819420D01*
X146290218Y-101832487D01*
X146317619Y-101850017D01*
X146321165Y-101852885D01*
X146342989Y-101875035D01*
X146361368Y-101904641D01*
X146371705Y-101934302D01*
X146376683Y-101967467D01*
X146377175Y-101982754D01*
X146374704Y-102015779D01*
X146367289Y-102046073D01*
X146353039Y-102076888D01*
X146337630Y-102098466D01*
X146313000Y-102122052D01*
X146283599Y-102140185D01*
X146253459Y-102151726D01*
X146228380Y-102157554D01*
X146401487Y-102416830D01*
X146306240Y-102416830D01*
X146147750Y-102167094D01*
X145957871Y-102167094D01*
X145957871Y-102416830D01*
X145875241Y-102416830D01*
X145875241Y-102101698D01*
X145957871Y-102101698D01*
X146157291Y-102101698D01*
X146188133Y-102099755D01*
X146218392Y-102092925D01*
X146246504Y-102079570D01*
X146258385Y-102070615D01*
X146278710Y-102046301D01*
X146290598Y-102016095D01*
X146294084Y-101983523D01*
X146290552Y-101952181D01*
X146278511Y-101923501D01*
X146257924Y-101900893D01*
X146229318Y-101884686D01*
X146196812Y-101875791D01*
X146162264Y-101872538D01*
X146153905Y-101872427D01*
X145957871Y-101872427D01*
X145957871Y-102101698D01*
X145875241Y-102101698D01*
X145875241Y-101806261D01*
X146162061Y-101806261D01*
X146193128Y-101807400D01*
G37*
G36*
X146892804Y-102248646D02*
G01*
X146890234Y-102283973D01*
X146882525Y-102315633D01*
X146869676Y-102343627D01*
X146848699Y-102371129D01*
X146839102Y-102380208D01*
X146813421Y-102398315D01*
X146783366Y-102411974D01*
X146748937Y-102421186D01*
X146715946Y-102425543D01*
X146685998Y-102426677D01*
X146652576Y-102425211D01*
X146621783Y-102420813D01*
X146589180Y-102411977D01*
X146560156Y-102399149D01*
X146538126Y-102384978D01*
X146513372Y-102361560D01*
X146494196Y-102333161D01*
X146481992Y-102304225D01*
X146474059Y-102271475D01*
X146472576Y-102261418D01*
X146553206Y-102254032D01*
X146560546Y-102285195D01*
X146575909Y-102315618D01*
X146598424Y-102338436D01*
X146628090Y-102353648D01*
X146658275Y-102360514D01*
X146685998Y-102362205D01*
X146717066Y-102359892D01*
X146746902Y-102351898D01*
X146774030Y-102336509D01*
X146778322Y-102332969D01*
X146798763Y-102307060D01*
X146809213Y-102276316D01*
X146811866Y-102246184D01*
X146807339Y-102214298D01*
X146792073Y-102185443D01*
X146773552Y-102167863D01*
X146746300Y-102153014D01*
X146716119Y-102144352D01*
X146684797Y-102140392D01*
X146663071Y-102139704D01*
X146618910Y-102139704D01*
X146618910Y-102072154D01*
X146661379Y-102072154D01*
X146695109Y-102069939D01*
X146727248Y-102062281D01*
X146756110Y-102047540D01*
X146760627Y-102044149D01*
X146782099Y-102020094D01*
X146793661Y-101989938D01*
X146795864Y-101966443D01*
X146792463Y-101935133D01*
X146780999Y-101906535D01*
X146767089Y-101888891D01*
X146741592Y-101871544D01*
X146711338Y-101862676D01*
X146681690Y-101860425D01*
X146648578Y-101863552D01*
X146617765Y-101874097D01*
X146598291Y-101886891D01*
X146576904Y-101911876D01*
X146564916Y-101941340D01*
X146561361Y-101961365D01*
X146483040Y-101955364D01*
X146488952Y-101924156D01*
X146500957Y-101892347D01*
X146518558Y-101864655D01*
X146541757Y-101841079D01*
X146545051Y-101838421D01*
X146573729Y-101820043D01*
X146606215Y-101806915D01*
X146637765Y-101799736D01*
X146672230Y-101796578D01*
X146682613Y-101796414D01*
X146715565Y-101797917D01*
X146750371Y-101803473D01*
X146781260Y-101813123D01*
X146811765Y-101829164D01*
X146825099Y-101839190D01*
X146847382Y-101862685D01*
X146863298Y-101890392D01*
X146872848Y-101922311D01*
X146875982Y-101953695D01*
X146876031Y-101958442D01*
X146873439Y-101989616D01*
X146864477Y-102020228D01*
X146847225Y-102049008D01*
X146843256Y-102053689D01*
X146819968Y-102074279D01*
X146790880Y-102090270D01*
X146759741Y-102100731D01*
X146748317Y-102103390D01*
X146748317Y-102105083D01*
X146780582Y-102110738D01*
X146812351Y-102121789D01*
X146839325Y-102137807D01*
X146854643Y-102151245D01*
X146874767Y-102177418D01*
X146887437Y-102207468D01*
X146892654Y-102241396D01*
X146892804Y-102248646D01*
G37*
G36*
X145374908Y-97350260D02*
G01*
X145409155Y-97354631D01*
X145440090Y-97362280D01*
X145471998Y-97375347D01*
X145499399Y-97392877D01*
X145502945Y-97395745D01*
X145524769Y-97417895D01*
X145543148Y-97447501D01*
X145553485Y-97477162D01*
X145558463Y-97510327D01*
X145558955Y-97525614D01*
X145556484Y-97558639D01*
X145549069Y-97588933D01*
X145534819Y-97619748D01*
X145519410Y-97641326D01*
X145494780Y-97664912D01*
X145465379Y-97683045D01*
X145435239Y-97694586D01*
X145410160Y-97700414D01*
X145583267Y-97959690D01*
X145488020Y-97959690D01*
X145329530Y-97709954D01*
X145139651Y-97709954D01*
X145139651Y-97959690D01*
X145057021Y-97959690D01*
X145057021Y-97644558D01*
X145139651Y-97644558D01*
X145339071Y-97644558D01*
X145369913Y-97642615D01*
X145400172Y-97635785D01*
X145428284Y-97622430D01*
X145440165Y-97613475D01*
X145460490Y-97589161D01*
X145472378Y-97558955D01*
X145475864Y-97526383D01*
X145472332Y-97495041D01*
X145460291Y-97466361D01*
X145439704Y-97443753D01*
X145411098Y-97427546D01*
X145378592Y-97418651D01*
X145344044Y-97415398D01*
X145335685Y-97415287D01*
X145139651Y-97415287D01*
X145139651Y-97644558D01*
X145057021Y-97644558D01*
X145057021Y-97349121D01*
X145343841Y-97349121D01*
X145374908Y-97350260D01*
G37*
G36*
X145665281Y-97959690D02*
G01*
X145665281Y-97904757D01*
X145679995Y-97874193D01*
X145696633Y-97845973D01*
X145715194Y-97820097D01*
X145719137Y-97815203D01*
X145739360Y-97791608D01*
X145762334Y-97767354D01*
X145786072Y-97744883D01*
X145810100Y-97723760D01*
X145833947Y-97703764D01*
X145855468Y-97686565D01*
X145880367Y-97666369D01*
X145905192Y-97644490D01*
X145917633Y-97632709D01*
X145939836Y-97608676D01*
X145957974Y-97583701D01*
X145962410Y-97576392D01*
X145974670Y-97546970D01*
X145979340Y-97516399D01*
X145979490Y-97509457D01*
X145975999Y-97477432D01*
X145964228Y-97448591D01*
X145949946Y-97431136D01*
X145922283Y-97413103D01*
X145890031Y-97404617D01*
X145868240Y-97403285D01*
X145836125Y-97406485D01*
X145805777Y-97417275D01*
X145786226Y-97430366D01*
X145765828Y-97453750D01*
X145752874Y-97483279D01*
X145748373Y-97506380D01*
X145668667Y-97498994D01*
X145674579Y-97468445D01*
X145686584Y-97437031D01*
X145704185Y-97409349D01*
X145727384Y-97385397D01*
X145730677Y-97382666D01*
X145759355Y-97363682D01*
X145791842Y-97350122D01*
X145823392Y-97342706D01*
X145857857Y-97339443D01*
X145868240Y-97339274D01*
X145901305Y-97340810D01*
X145936093Y-97346486D01*
X145966803Y-97356344D01*
X145996904Y-97372731D01*
X146009957Y-97382974D01*
X146031634Y-97407045D01*
X146047117Y-97435713D01*
X146056407Y-97468979D01*
X146059456Y-97501857D01*
X146059504Y-97506841D01*
X146056382Y-97537884D01*
X146047016Y-97568809D01*
X146043193Y-97577623D01*
X146027450Y-97606153D01*
X146008275Y-97632534D01*
X145995031Y-97647943D01*
X145972403Y-97670732D01*
X145948408Y-97692681D01*
X145923386Y-97714437D01*
X145899395Y-97734641D01*
X145872548Y-97756731D01*
X145848958Y-97776686D01*
X145825430Y-97797918D01*
X145803028Y-97819995D01*
X145793304Y-97830436D01*
X145773577Y-97854671D01*
X145756414Y-97882070D01*
X145750989Y-97893524D01*
X146069044Y-97893524D01*
X146069044Y-97959690D01*
X145665281Y-97959690D01*
G37*
G36*
X145380208Y-95969660D02*
G01*
X145414455Y-95974031D01*
X145445390Y-95981680D01*
X145477298Y-95994747D01*
X145504699Y-96012277D01*
X145508245Y-96015145D01*
X145530069Y-96037295D01*
X145548448Y-96066901D01*
X145558785Y-96096562D01*
X145563763Y-96129727D01*
X145564255Y-96145014D01*
X145561784Y-96178039D01*
X145554369Y-96208333D01*
X145540119Y-96239148D01*
X145524710Y-96260726D01*
X145500080Y-96284312D01*
X145470679Y-96302445D01*
X145440539Y-96313986D01*
X145415460Y-96319814D01*
X145588567Y-96579090D01*
X145493320Y-96579090D01*
X145334830Y-96329354D01*
X145144951Y-96329354D01*
X145144951Y-96579090D01*
X145062321Y-96579090D01*
X145062321Y-96263958D01*
X145144951Y-96263958D01*
X145344371Y-96263958D01*
X145375213Y-96262015D01*
X145405472Y-96255185D01*
X145433584Y-96241830D01*
X145445465Y-96232875D01*
X145465790Y-96208561D01*
X145477678Y-96178355D01*
X145481164Y-96145783D01*
X145477632Y-96114441D01*
X145465591Y-96085761D01*
X145445004Y-96063153D01*
X145416398Y-96046946D01*
X145383892Y-96038051D01*
X145349344Y-96034798D01*
X145340985Y-96034687D01*
X145144951Y-96034687D01*
X145144951Y-96263958D01*
X145062321Y-96263958D01*
X145062321Y-95968521D01*
X145349141Y-95968521D01*
X145380208Y-95969660D01*
G37*
G36*
X145693508Y-96579090D02*
G01*
X145693508Y-96512924D01*
X145848766Y-96512924D01*
X145848766Y-96042996D01*
X145711204Y-96145783D01*
X145711204Y-96072232D01*
X145855383Y-95968521D01*
X145927242Y-95968521D01*
X145927242Y-96512924D01*
X146075575Y-96512924D01*
X146075575Y-96579090D01*
X145693508Y-96579090D01*
G37*
D11*
X144986664Y-101238997D02*
X144681864Y-101238997D01*
X144681864Y-101238997D02*
X144681864Y-101166426D01*
X144681864Y-101166426D02*
X144696378Y-101122883D01*
X144696378Y-101122883D02*
X144725407Y-101093854D01*
X144725407Y-101093854D02*
X144754435Y-101079340D01*
X144754435Y-101079340D02*
X144812492Y-101064826D01*
X144812492Y-101064826D02*
X144856035Y-101064826D01*
X144856035Y-101064826D02*
X144914092Y-101079340D01*
X144914092Y-101079340D02*
X144943121Y-101093854D01*
X144943121Y-101093854D02*
X144972150Y-101122883D01*
X144972150Y-101122883D02*
X144986664Y-101166426D01*
X144986664Y-101166426D02*
X144986664Y-101238997D01*
X144986664Y-100774540D02*
X144986664Y-100948711D01*
X144986664Y-100861626D02*
X144681864Y-100861626D01*
X144681864Y-100861626D02*
X144725407Y-100890654D01*
X144725407Y-100890654D02*
X144754435Y-100919683D01*
X144754435Y-100919683D02*
X144768950Y-100948711D01*
X151762097Y-102003015D02*
X151762097Y-102307815D01*
X151762097Y-102307815D02*
X151689526Y-102307815D01*
X151689526Y-102307815D02*
X151645983Y-102293301D01*
X151645983Y-102293301D02*
X151616954Y-102264272D01*
X151616954Y-102264272D02*
X151602440Y-102235244D01*
X151602440Y-102235244D02*
X151587926Y-102177187D01*
X151587926Y-102177187D02*
X151587926Y-102133644D01*
X151587926Y-102133644D02*
X151602440Y-102075587D01*
X151602440Y-102075587D02*
X151616954Y-102046558D01*
X151616954Y-102046558D02*
X151645983Y-102017530D01*
X151645983Y-102017530D02*
X151689526Y-102003015D01*
X151689526Y-102003015D02*
X151762097Y-102003015D01*
X151471811Y-102278787D02*
X151457297Y-102293301D01*
X151457297Y-102293301D02*
X151428269Y-102307815D01*
X151428269Y-102307815D02*
X151355697Y-102307815D01*
X151355697Y-102307815D02*
X151326669Y-102293301D01*
X151326669Y-102293301D02*
X151312154Y-102278787D01*
X151312154Y-102278787D02*
X151297640Y-102249758D01*
X151297640Y-102249758D02*
X151297640Y-102220730D01*
X151297640Y-102220730D02*
X151312154Y-102177187D01*
X151312154Y-102177187D02*
X151486326Y-102003015D01*
X151486326Y-102003015D02*
X151297640Y-102003015D01*
D12*
%TO.C,R5*%
X153673940Y-110084330D02*
X155273940Y-110084330D01*
X155264410Y-110884330D02*
X155264410Y-110084330D01*
X153673940Y-110884330D02*
X155273940Y-110884330D01*
X153673940Y-110884330D02*
X153673940Y-110084330D01*
%TO.C,R4*%
X153789980Y-102459110D02*
X153789980Y-101659120D01*
X152189980Y-101659120D02*
X153789980Y-101659120D01*
X152199500Y-102459110D02*
X152199500Y-101659120D01*
X152189980Y-102459110D02*
X153789980Y-102459110D01*
%TO.C,R3*%
X146223690Y-101587030D02*
X147823690Y-101587030D01*
X147814170Y-102387030D02*
X147814170Y-101587030D01*
X146223690Y-102387030D02*
X147823690Y-102387030D01*
X146223690Y-102387030D02*
X146223690Y-101587030D01*
%TO.C,R2*%
X145405480Y-97918780D02*
X145405480Y-97118790D01*
X145405480Y-97918780D02*
X147005480Y-97918780D01*
X146995950Y-97918780D02*
X146995950Y-97118790D01*
X145405480Y-97118790D02*
X147005480Y-97118790D01*
%TO.C,R1*%
X145410780Y-95738190D02*
X147010780Y-95738190D01*
X147001250Y-96538190D02*
X147001250Y-95738190D01*
X145410780Y-96538190D02*
X147010780Y-96538190D01*
X145410780Y-96538190D02*
X145410780Y-95738190D01*
%TO.C,D1*%
X145531040Y-100507850D02*
X145531040Y-98704540D01*
X144116660Y-100507850D02*
X145531040Y-100507850D01*
X145531040Y-100491650D02*
X145531040Y-98672130D01*
X144274880Y-100463730D02*
X145060710Y-100463730D01*
X144116660Y-98672130D02*
X145531040Y-98672130D01*
X144520430Y-98672130D02*
X145060710Y-98672130D01*
X145504420Y-100464890D02*
X145531040Y-100491650D01*
X144130990Y-100504300D02*
X144170050Y-100465040D01*
X144116660Y-100507850D02*
X144116660Y-98672130D01*
X145060710Y-100463730D02*
X145504420Y-100464890D01*
X144170050Y-100465040D02*
X144667800Y-100463730D01*
%TO.C,D2*%
X149227640Y-101458640D02*
X151030950Y-101458640D01*
X151030950Y-102873020D02*
X151030950Y-101458640D01*
X149195230Y-101458640D02*
X151014760Y-101458640D01*
X150986830Y-102714800D02*
X150986830Y-101928970D01*
X149195230Y-102873020D02*
X149195230Y-101458640D01*
X149195230Y-102469250D02*
X149195230Y-101928970D01*
X150987990Y-101485270D02*
X151014760Y-101458640D01*
X150988140Y-102819640D02*
X151027400Y-102858690D01*
X149195230Y-102873020D02*
X151030950Y-102873020D01*
X150986830Y-101928970D02*
X150987990Y-101485270D01*
X150986830Y-102321890D02*
X150988140Y-102819640D01*
%TD*%
M02*
