%TF.GenerationSoftware,KiCad,Pcbnew,8.0.8+dfsg-1*%
%TF.CreationDate,2025-02-13T13:44:32+01:00*%
%TF.ProjectId,DigiKitkat,44696769-4b69-4746-9b61-742e6b696361,rev?*%
%TF.SameCoordinates,Original*%
%TF.FileFunction,Copper,L2,Bot*%
%TF.FilePolarity,Positive*%
%FSLAX46Y46*%
G04 Gerber Fmt 4.6, Leading zero omitted, Abs format (unit mm)*
G04 Created by KiCad (PCBNEW 8.0.8+dfsg-1) date 2025-02-13 13:44:32*
%MOMM*%
%LPD*%
G01*
G04 APERTURE LIST*
%TA.AperFunction,ComponentPad*%
%ADD10C,1.869000*%
%TD*%
%TA.AperFunction,ViaPad*%
%ADD11C,1.000000*%
%TD*%
%TA.AperFunction,Conductor*%
%ADD12C,0.500000*%
%TD*%
%TA.AperFunction,Conductor*%
%ADD13C,0.400000*%
%TD*%
%TA.AperFunction,Conductor*%
%ADD14C,0.600000*%
%TD*%
G04 APERTURE END LIST*
D10*
%TO.P,J2,1*%
%TO.N,VIN*%
X151914300Y-112762500D03*
%TO.P,J2,2*%
%TO.N,GND*%
X149374300Y-112762500D03*
%TO.P,J2,3*%
%TO.N,VCC5V*%
X146834300Y-112762500D03*
%TD*%
%TO.P,J1,1*%
%TO.N,NetJ1_1*%
X159978730Y-97507560D03*
%TO.P,J1,2*%
%TO.N,D_P*%
X159978730Y-100047560D03*
%TO.P,J1,3*%
%TO.N,D_N*%
X159978730Y-102587560D03*
%TO.P,J1,4*%
%TO.N,NetJ1_4*%
X159978730Y-105127560D03*
%TO.P,J1,5*%
%TO.N,MISO*%
X159978730Y-107667560D03*
%TO.P,J1,6*%
%TO.N,NetJ1_6*%
X159978730Y-110207560D03*
%TD*%
D11*
%TO.N,NetCN1_2*%
X144775100Y-99222000D03*
%TO.N,GND*%
X155481400Y-111867600D03*
%TO.N,NetCN1_1*%
X158383300Y-111770300D03*
%TO.N,NetCN1_2*%
X144124700Y-105799200D03*
%TO.N,D_P*%
X145235000Y-101984600D03*
%TO.N,NetCN1_1*%
X147879100Y-110747900D03*
%TO.N,VCC5V*%
X154573300Y-106062500D03*
X157986400Y-109389000D03*
%TO.N,NetJ1_1*%
X151041100Y-97046200D03*
%TO.N,NetJ1_6*%
X154097100Y-100578400D03*
%TO.N,MISO*%
X153303300Y-99586200D03*
%TO.N,D_N*%
X152787400Y-98078100D03*
%TO.N,D_P*%
X151755500Y-99268700D03*
%TO.N,NetJ1_4*%
X154136700Y-98554300D03*
%TD*%
D12*
%TO.N,VCC5V*%
X154573300Y-108357200D02*
X154613000Y-108357200D01*
X154573300Y-106372800D02*
X154573300Y-106062500D01*
X154573300Y-108357200D02*
X154573300Y-106372800D01*
X146913600Y-108357200D02*
X154573300Y-108357200D01*
D13*
%TO.N,GND*%
X149374300Y-112643400D02*
X149374300Y-111254300D01*
D12*
%TO.N,VCC5V*%
X154573300Y-106372800D02*
X154593000Y-106390210D01*
X154593000Y-106390210D02*
X157986400Y-109389000D01*
D13*
%TO.N,D_P*%
X151636400Y-99348100D02*
X151636400Y-97760600D01*
%TO.N,MISO*%
X153303300Y-99506900D02*
X156081400Y-99506900D01*
%TO.N,NetJ1_4*%
X154097100Y-98475000D02*
X156676700Y-98475000D01*
%TO.N,NetJ1_1*%
X151080800Y-97085900D02*
X151080800Y-95974700D01*
%TO.N,NetCN1_2*%
X144097210Y-99756320D02*
X144631520Y-99222000D01*
X144097210Y-105771710D02*
X144097210Y-99756320D01*
X144631520Y-99222000D02*
X144775100Y-99222000D01*
D14*
%TO.N,NetCN1_1*%
X156557700Y-111175000D02*
X158383300Y-111730600D01*
X155684600Y-109349300D02*
X156557700Y-111175000D01*
X147905800Y-109428700D02*
X155684600Y-109349300D01*
X147866100Y-109468400D02*
X147905800Y-109428700D01*
X147866100Y-110738400D02*
X147866100Y-109468400D01*
D12*
%TO.N,VCC5V*%
X146715200Y-112722800D02*
X146794600Y-112802200D01*
X146715200Y-112722800D02*
X146715200Y-108555600D01*
X146715200Y-108555600D02*
X146913600Y-108357200D01*
X154573300Y-106372800D02*
X154613000Y-108357200D01*
D13*
%TO.N,GND*%
X149374300Y-111254300D02*
X149612400Y-111016200D01*
X149612400Y-111016200D02*
X153581100Y-111016200D01*
X153581100Y-111016200D02*
X155446400Y-111889300D01*
%TO.N,MISO*%
X156319600Y-104309000D02*
X159454900Y-107444300D01*
X156319600Y-104309000D02*
X156319600Y-99745000D01*
X156081400Y-99506900D02*
X156319600Y-99745000D01*
%TO.N,NetJ1_4*%
X159573900Y-105023400D02*
X159693000Y-105142500D01*
X159375500Y-105023400D02*
X159573900Y-105023400D01*
X157113300Y-102761200D02*
X159375500Y-105023400D01*
X157113300Y-102761200D02*
X157113300Y-98911500D01*
X156676700Y-98475000D02*
X157113300Y-98911500D01*
%TO.N,D_N*%
X159097700Y-102562800D02*
X159613600Y-102562800D01*
X157708600Y-101173700D02*
X159097700Y-102562800D01*
X157708600Y-101173700D02*
X157708600Y-97641500D01*
X157510200Y-97443100D02*
X157708600Y-97641500D01*
X153343000Y-97443100D02*
X157510200Y-97443100D01*
X152827100Y-97959000D02*
X153343000Y-97443100D01*
X152827100Y-97998700D02*
X152827100Y-97959000D01*
%TO.N,D_P*%
X158462700Y-99824300D02*
X159812100Y-99824300D01*
X158303900Y-99665600D02*
X158462700Y-99824300D01*
X158303900Y-99665600D02*
X158303900Y-96887500D01*
X158065800Y-96649300D02*
X158303900Y-96887500D01*
X152747700Y-96649300D02*
X158065800Y-96649300D01*
%TO.N,NetJ1_1*%
X159494600Y-97125600D02*
X159693000Y-97324000D01*
X159494600Y-97125600D02*
X159494600Y-96966900D01*
X158502400Y-95974700D02*
X159494600Y-96966900D01*
X151080800Y-95974700D02*
X158502400Y-95974700D01*
%TO.N,NetJ1_6*%
X154097100Y-100657800D02*
X155367100Y-102642200D01*
X155367100Y-105380600D02*
X155367100Y-102642200D01*
X155367100Y-105380600D02*
X159693000Y-109706500D01*
X159693000Y-109706500D02*
X159851700Y-109706500D01*
%TO.N,D_P*%
X151636400Y-97760600D02*
X152708000Y-96689000D01*
X149215500Y-99348100D02*
X151636400Y-99348100D01*
X149175800Y-99387800D02*
X149215500Y-99348100D01*
X149175800Y-101967500D02*
X149175800Y-99387800D01*
X145326100Y-101967500D02*
X149175800Y-101967500D01*
%TD*%
M02*
