%TF.GenerationSoftware,KiCad,Pcbnew,8.0.8+dfsg-1*%
%TF.CreationDate,2025-02-13T13:44:32+01:00*%
%TF.ProjectId,DigiKitkat,44696769-4b69-4746-9b61-742e6b696361,rev?*%
%TF.SameCoordinates,Original*%
%TF.FileFunction,Legend,Top*%
%TF.FilePolarity,Positive*%
%FSLAX46Y46*%
G04 Gerber Fmt 4.6, Leading zero omitted, Abs format (unit mm)*
G04 Created by KiCad (PCBNEW 8.0.8+dfsg-1) date 2025-02-13 13:44:32*
%MOMM*%
%LPD*%
G01*
G04 APERTURE LIST*
%ADD10C,0.152000*%
%ADD11C,0.154000*%
%ADD12C,0.152400*%
%ADD13C,0.254000*%
%ADD14C,0.200000*%
%ADD15C,0.203000*%
%ADD16C,0.203200*%
%ADD17C,0.000000*%
%ADD18C,0.300000*%
%ADD19C,0.150000*%
G04 APERTURE END LIST*
D10*
X158494979Y-97767123D02*
X157794979Y-97767123D01*
X157794979Y-97767123D02*
X157794979Y-97500456D01*
X157794979Y-97500456D02*
X157828312Y-97433790D01*
X157828312Y-97433790D02*
X157861646Y-97400456D01*
X157861646Y-97400456D02*
X157928312Y-97367123D01*
X157928312Y-97367123D02*
X158028312Y-97367123D01*
X158028312Y-97367123D02*
X158094979Y-97400456D01*
X158094979Y-97400456D02*
X158128312Y-97433790D01*
X158128312Y-97433790D02*
X158161646Y-97500456D01*
X158161646Y-97500456D02*
X158161646Y-97767123D01*
X157794979Y-96733790D02*
X157794979Y-97067123D01*
X157794979Y-97067123D02*
X158128312Y-97100456D01*
X158128312Y-97100456D02*
X158094979Y-97067123D01*
X158094979Y-97067123D02*
X158061646Y-97000456D01*
X158061646Y-97000456D02*
X158061646Y-96833790D01*
X158061646Y-96833790D02*
X158094979Y-96767123D01*
X158094979Y-96767123D02*
X158128312Y-96733790D01*
X158128312Y-96733790D02*
X158194979Y-96700456D01*
X158194979Y-96700456D02*
X158361646Y-96700456D01*
X158361646Y-96700456D02*
X158428312Y-96733790D01*
X158428312Y-96733790D02*
X158461646Y-96767123D01*
X158461646Y-96767123D02*
X158494979Y-96833790D01*
X158494979Y-96833790D02*
X158494979Y-97000456D01*
X158494979Y-97000456D02*
X158461646Y-97067123D01*
X158461646Y-97067123D02*
X158428312Y-97100456D01*
X158494979Y-100261353D02*
X157794979Y-100261353D01*
X157794979Y-100261353D02*
X157794979Y-99994686D01*
X157794979Y-99994686D02*
X157828312Y-99928020D01*
X157828312Y-99928020D02*
X157861646Y-99894686D01*
X157861646Y-99894686D02*
X157928312Y-99861353D01*
X157928312Y-99861353D02*
X158028312Y-99861353D01*
X158028312Y-99861353D02*
X158094979Y-99894686D01*
X158094979Y-99894686D02*
X158128312Y-99928020D01*
X158128312Y-99928020D02*
X158161646Y-99994686D01*
X158161646Y-99994686D02*
X158161646Y-100261353D01*
X158028312Y-99261353D02*
X158494979Y-99261353D01*
X157761646Y-99428020D02*
X158261646Y-99594686D01*
X158261646Y-99594686D02*
X158261646Y-99161353D01*
X158645029Y-101861983D02*
X157945029Y-101861983D01*
X157945029Y-101861983D02*
X157945029Y-101595316D01*
X157945029Y-101595316D02*
X157978362Y-101528650D01*
X157978362Y-101528650D02*
X158011696Y-101495316D01*
X158011696Y-101495316D02*
X158078362Y-101461983D01*
X158078362Y-101461983D02*
X158178362Y-101461983D01*
X158178362Y-101461983D02*
X158245029Y-101495316D01*
X158245029Y-101495316D02*
X158278362Y-101528650D01*
X158278362Y-101528650D02*
X158311696Y-101595316D01*
X158311696Y-101595316D02*
X158311696Y-101861983D01*
X157945029Y-101228650D02*
X157945029Y-100795316D01*
X157945029Y-100795316D02*
X158211696Y-101028650D01*
X158211696Y-101028650D02*
X158211696Y-100928650D01*
X158211696Y-100928650D02*
X158245029Y-100861983D01*
X158245029Y-100861983D02*
X158278362Y-100828650D01*
X158278362Y-100828650D02*
X158345029Y-100795316D01*
X158345029Y-100795316D02*
X158511696Y-100795316D01*
X158511696Y-100795316D02*
X158578362Y-100828650D01*
X158578362Y-100828650D02*
X158611696Y-100861983D01*
X158611696Y-100861983D02*
X158645029Y-100928650D01*
X158645029Y-100928650D02*
X158645029Y-101128650D01*
X158645029Y-101128650D02*
X158611696Y-101195316D01*
X158611696Y-101195316D02*
X158578362Y-101228650D01*
X158494979Y-105513323D02*
X157794979Y-105513323D01*
X157794979Y-105513323D02*
X157794979Y-105246656D01*
X157794979Y-105246656D02*
X157828312Y-105179990D01*
X157828312Y-105179990D02*
X157861646Y-105146656D01*
X157861646Y-105146656D02*
X157928312Y-105113323D01*
X157928312Y-105113323D02*
X158028312Y-105113323D01*
X158028312Y-105113323D02*
X158094979Y-105146656D01*
X158094979Y-105146656D02*
X158128312Y-105179990D01*
X158128312Y-105179990D02*
X158161646Y-105246656D01*
X158161646Y-105246656D02*
X158161646Y-105513323D01*
X157861646Y-104846656D02*
X157828312Y-104813323D01*
X157828312Y-104813323D02*
X157794979Y-104746656D01*
X157794979Y-104746656D02*
X157794979Y-104579990D01*
X157794979Y-104579990D02*
X157828312Y-104513323D01*
X157828312Y-104513323D02*
X157861646Y-104479990D01*
X157861646Y-104479990D02*
X157928312Y-104446656D01*
X157928312Y-104446656D02*
X157994979Y-104446656D01*
X157994979Y-104446656D02*
X158094979Y-104479990D01*
X158094979Y-104479990D02*
X158494979Y-104879990D01*
X158494979Y-104879990D02*
X158494979Y-104446656D01*
X158494979Y-107834243D02*
X157794979Y-107834243D01*
X157794979Y-107834243D02*
X157794979Y-107567576D01*
X157794979Y-107567576D02*
X157828312Y-107500910D01*
X157828312Y-107500910D02*
X157861646Y-107467576D01*
X157861646Y-107467576D02*
X157928312Y-107434243D01*
X157928312Y-107434243D02*
X158028312Y-107434243D01*
X158028312Y-107434243D02*
X158094979Y-107467576D01*
X158094979Y-107467576D02*
X158128312Y-107500910D01*
X158128312Y-107500910D02*
X158161646Y-107567576D01*
X158161646Y-107567576D02*
X158161646Y-107834243D01*
X158494979Y-106767576D02*
X158494979Y-107167576D01*
X158494979Y-106967576D02*
X157794979Y-106967576D01*
X157794979Y-106967576D02*
X157894979Y-107034243D01*
X157894979Y-107034243D02*
X157961646Y-107100910D01*
X157961646Y-107100910D02*
X157994979Y-107167576D01*
X158494979Y-110446503D02*
X157794979Y-110446503D01*
X157794979Y-110446503D02*
X157794979Y-110179836D01*
X157794979Y-110179836D02*
X157828312Y-110113170D01*
X157828312Y-110113170D02*
X157861646Y-110079836D01*
X157861646Y-110079836D02*
X157928312Y-110046503D01*
X157928312Y-110046503D02*
X158028312Y-110046503D01*
X158028312Y-110046503D02*
X158094979Y-110079836D01*
X158094979Y-110079836D02*
X158128312Y-110113170D01*
X158128312Y-110113170D02*
X158161646Y-110179836D01*
X158161646Y-110179836D02*
X158161646Y-110446503D01*
X157794979Y-109613170D02*
X157794979Y-109546503D01*
X157794979Y-109546503D02*
X157828312Y-109479836D01*
X157828312Y-109479836D02*
X157861646Y-109446503D01*
X157861646Y-109446503D02*
X157928312Y-109413170D01*
X157928312Y-109413170D02*
X158061646Y-109379836D01*
X158061646Y-109379836D02*
X158228312Y-109379836D01*
X158228312Y-109379836D02*
X158361646Y-109413170D01*
X158361646Y-109413170D02*
X158428312Y-109446503D01*
X158428312Y-109446503D02*
X158461646Y-109479836D01*
X158461646Y-109479836D02*
X158494979Y-109546503D01*
X158494979Y-109546503D02*
X158494979Y-109613170D01*
X158494979Y-109613170D02*
X158461646Y-109679836D01*
X158461646Y-109679836D02*
X158428312Y-109713170D01*
X158428312Y-109713170D02*
X158361646Y-109746503D01*
X158361646Y-109746503D02*
X158228312Y-109779836D01*
X158228312Y-109779836D02*
X158061646Y-109779836D01*
X158061646Y-109779836D02*
X157928312Y-109746503D01*
X157928312Y-109746503D02*
X157861646Y-109713170D01*
X157861646Y-109713170D02*
X157828312Y-109679836D01*
X157828312Y-109679836D02*
X157794979Y-109613170D01*
X146758300Y-110388189D02*
X146424966Y-110388189D01*
X146424966Y-110388189D02*
X146391633Y-110721522D01*
X146391633Y-110721522D02*
X146424966Y-110688189D01*
X146424966Y-110688189D02*
X146491633Y-110654856D01*
X146491633Y-110654856D02*
X146658300Y-110654856D01*
X146658300Y-110654856D02*
X146724966Y-110688189D01*
X146724966Y-110688189D02*
X146758300Y-110721522D01*
X146758300Y-110721522D02*
X146791633Y-110788189D01*
X146791633Y-110788189D02*
X146791633Y-110954856D01*
X146791633Y-110954856D02*
X146758300Y-111021522D01*
X146758300Y-111021522D02*
X146724966Y-111054856D01*
X146724966Y-111054856D02*
X146658300Y-111088189D01*
X146658300Y-111088189D02*
X146491633Y-111088189D01*
X146491633Y-111088189D02*
X146424966Y-111054856D01*
X146424966Y-111054856D02*
X146391633Y-111021522D01*
X146991633Y-110388189D02*
X147224967Y-111088189D01*
X147224967Y-111088189D02*
X147458300Y-110388189D01*
X151073956Y-110426329D02*
X151307290Y-111126329D01*
X151307290Y-111126329D02*
X151540623Y-110426329D01*
X151773956Y-111126329D02*
X151773956Y-110426329D01*
X152107289Y-111126329D02*
X152107289Y-110426329D01*
X152107289Y-110426329D02*
X152507289Y-111126329D01*
X152507289Y-111126329D02*
X152507289Y-110426329D01*
X148861233Y-110402442D02*
X148794566Y-110369109D01*
X148794566Y-110369109D02*
X148694566Y-110369109D01*
X148694566Y-110369109D02*
X148594566Y-110402442D01*
X148594566Y-110402442D02*
X148527900Y-110469109D01*
X148527900Y-110469109D02*
X148494566Y-110535776D01*
X148494566Y-110535776D02*
X148461233Y-110669109D01*
X148461233Y-110669109D02*
X148461233Y-110769109D01*
X148461233Y-110769109D02*
X148494566Y-110902442D01*
X148494566Y-110902442D02*
X148527900Y-110969109D01*
X148527900Y-110969109D02*
X148594566Y-111035776D01*
X148594566Y-111035776D02*
X148694566Y-111069109D01*
X148694566Y-111069109D02*
X148761233Y-111069109D01*
X148761233Y-111069109D02*
X148861233Y-111035776D01*
X148861233Y-111035776D02*
X148894566Y-111002442D01*
X148894566Y-111002442D02*
X148894566Y-110769109D01*
X148894566Y-110769109D02*
X148761233Y-110769109D01*
X149194566Y-111069109D02*
X149194566Y-110369109D01*
X149194566Y-110369109D02*
X149594566Y-111069109D01*
X149594566Y-111069109D02*
X149594566Y-110369109D01*
X149927899Y-111069109D02*
X149927899Y-110369109D01*
X149927899Y-110369109D02*
X150094566Y-110369109D01*
X150094566Y-110369109D02*
X150194566Y-110402442D01*
X150194566Y-110402442D02*
X150261233Y-110469109D01*
X150261233Y-110469109D02*
X150294566Y-110535776D01*
X150294566Y-110535776D02*
X150327899Y-110669109D01*
X150327899Y-110669109D02*
X150327899Y-110769109D01*
X150327899Y-110769109D02*
X150294566Y-110902442D01*
X150294566Y-110902442D02*
X150261233Y-110969109D01*
X150261233Y-110969109D02*
X150194566Y-111035776D01*
X150194566Y-111035776D02*
X150094566Y-111069109D01*
X150094566Y-111069109D02*
X149927899Y-111069109D01*
D11*
X136056197Y-106001428D02*
X135522863Y-106001428D01*
X135675244Y-106001428D02*
X135599054Y-105963333D01*
X135599054Y-105963333D02*
X135560959Y-105925238D01*
X135560959Y-105925238D02*
X135522863Y-105849047D01*
X135522863Y-105849047D02*
X135522863Y-105772857D01*
X136018102Y-105201428D02*
X136056197Y-105277619D01*
X136056197Y-105277619D02*
X136056197Y-105430000D01*
X136056197Y-105430000D02*
X136018102Y-105506190D01*
X136018102Y-105506190D02*
X135941911Y-105544286D01*
X135941911Y-105544286D02*
X135637149Y-105544286D01*
X135637149Y-105544286D02*
X135560959Y-105506190D01*
X135560959Y-105506190D02*
X135522863Y-105430000D01*
X135522863Y-105430000D02*
X135522863Y-105277619D01*
X135522863Y-105277619D02*
X135560959Y-105201428D01*
X135560959Y-105201428D02*
X135637149Y-105163333D01*
X135637149Y-105163333D02*
X135713340Y-105163333D01*
X135713340Y-105163333D02*
X135789530Y-105544286D01*
X135522863Y-104896667D02*
X136056197Y-104706191D01*
X136056197Y-104706191D02*
X135522863Y-104515714D01*
X135256197Y-104287143D02*
X135256197Y-103791905D01*
X135256197Y-103791905D02*
X135560959Y-104058571D01*
X135560959Y-104058571D02*
X135560959Y-103944286D01*
X135560959Y-103944286D02*
X135599054Y-103868095D01*
X135599054Y-103868095D02*
X135637149Y-103830000D01*
X135637149Y-103830000D02*
X135713340Y-103791905D01*
X135713340Y-103791905D02*
X135903816Y-103791905D01*
X135903816Y-103791905D02*
X135980006Y-103830000D01*
X135980006Y-103830000D02*
X136018102Y-103868095D01*
X136018102Y-103868095D02*
X136056197Y-103944286D01*
X136056197Y-103944286D02*
X136056197Y-104172857D01*
X136056197Y-104172857D02*
X136018102Y-104249048D01*
X136018102Y-104249048D02*
X135980006Y-104287143D01*
X136533241Y-99744137D02*
X136533241Y-98944137D01*
X136533241Y-98944137D02*
X136723717Y-98944137D01*
X136723717Y-98944137D02*
X136838003Y-98982232D01*
X136838003Y-98982232D02*
X136914193Y-99058422D01*
X136914193Y-99058422D02*
X136952288Y-99134613D01*
X136952288Y-99134613D02*
X136990384Y-99286994D01*
X136990384Y-99286994D02*
X136990384Y-99401280D01*
X136990384Y-99401280D02*
X136952288Y-99553661D01*
X136952288Y-99553661D02*
X136914193Y-99629851D01*
X136914193Y-99629851D02*
X136838003Y-99706042D01*
X136838003Y-99706042D02*
X136723717Y-99744137D01*
X136723717Y-99744137D02*
X136533241Y-99744137D01*
X137333241Y-99744137D02*
X137333241Y-99210803D01*
X137333241Y-98944137D02*
X137295145Y-98982232D01*
X137295145Y-98982232D02*
X137333241Y-99020327D01*
X137333241Y-99020327D02*
X137371336Y-98982232D01*
X137371336Y-98982232D02*
X137333241Y-98944137D01*
X137333241Y-98944137D02*
X137333241Y-99020327D01*
X138057050Y-99210803D02*
X138057050Y-99858422D01*
X138057050Y-99858422D02*
X138018955Y-99934613D01*
X138018955Y-99934613D02*
X137980859Y-99972708D01*
X137980859Y-99972708D02*
X137904669Y-100010803D01*
X137904669Y-100010803D02*
X137790383Y-100010803D01*
X137790383Y-100010803D02*
X137714193Y-99972708D01*
X138057050Y-99706042D02*
X137980859Y-99744137D01*
X137980859Y-99744137D02*
X137828478Y-99744137D01*
X137828478Y-99744137D02*
X137752288Y-99706042D01*
X137752288Y-99706042D02*
X137714193Y-99667946D01*
X137714193Y-99667946D02*
X137676097Y-99591756D01*
X137676097Y-99591756D02*
X137676097Y-99363184D01*
X137676097Y-99363184D02*
X137714193Y-99286994D01*
X137714193Y-99286994D02*
X137752288Y-99248899D01*
X137752288Y-99248899D02*
X137828478Y-99210803D01*
X137828478Y-99210803D02*
X137980859Y-99210803D01*
X137980859Y-99210803D02*
X138057050Y-99248899D01*
X138438003Y-99744137D02*
X138438003Y-99210803D01*
X138438003Y-98944137D02*
X138399907Y-98982232D01*
X138399907Y-98982232D02*
X138438003Y-99020327D01*
X138438003Y-99020327D02*
X138476098Y-98982232D01*
X138476098Y-98982232D02*
X138438003Y-98944137D01*
X138438003Y-98944137D02*
X138438003Y-99020327D01*
X138780859Y-99706042D02*
X138857050Y-99744137D01*
X138857050Y-99744137D02*
X139009431Y-99744137D01*
X139009431Y-99744137D02*
X139085621Y-99706042D01*
X139085621Y-99706042D02*
X139123717Y-99629851D01*
X139123717Y-99629851D02*
X139123717Y-99591756D01*
X139123717Y-99591756D02*
X139085621Y-99515565D01*
X139085621Y-99515565D02*
X139009431Y-99477470D01*
X139009431Y-99477470D02*
X138895145Y-99477470D01*
X138895145Y-99477470D02*
X138818955Y-99439375D01*
X138818955Y-99439375D02*
X138780859Y-99363184D01*
X138780859Y-99363184D02*
X138780859Y-99325089D01*
X138780859Y-99325089D02*
X138818955Y-99248899D01*
X138818955Y-99248899D02*
X138895145Y-99210803D01*
X138895145Y-99210803D02*
X139009431Y-99210803D01*
X139009431Y-99210803D02*
X139085621Y-99248899D01*
X139466574Y-99210803D02*
X139466574Y-100010803D01*
X139466574Y-99248899D02*
X139542764Y-99210803D01*
X139542764Y-99210803D02*
X139695145Y-99210803D01*
X139695145Y-99210803D02*
X139771336Y-99248899D01*
X139771336Y-99248899D02*
X139809431Y-99286994D01*
X139809431Y-99286994D02*
X139847526Y-99363184D01*
X139847526Y-99363184D02*
X139847526Y-99591756D01*
X139847526Y-99591756D02*
X139809431Y-99667946D01*
X139809431Y-99667946D02*
X139771336Y-99706042D01*
X139771336Y-99706042D02*
X139695145Y-99744137D01*
X139695145Y-99744137D02*
X139542764Y-99744137D01*
X139542764Y-99744137D02*
X139466574Y-99706042D01*
X140533241Y-99744137D02*
X140533241Y-99325089D01*
X140533241Y-99325089D02*
X140495146Y-99248899D01*
X140495146Y-99248899D02*
X140418955Y-99210803D01*
X140418955Y-99210803D02*
X140266574Y-99210803D01*
X140266574Y-99210803D02*
X140190384Y-99248899D01*
X140533241Y-99706042D02*
X140457050Y-99744137D01*
X140457050Y-99744137D02*
X140266574Y-99744137D01*
X140266574Y-99744137D02*
X140190384Y-99706042D01*
X140190384Y-99706042D02*
X140152288Y-99629851D01*
X140152288Y-99629851D02*
X140152288Y-99553661D01*
X140152288Y-99553661D02*
X140190384Y-99477470D01*
X140190384Y-99477470D02*
X140266574Y-99439375D01*
X140266574Y-99439375D02*
X140457050Y-99439375D01*
X140457050Y-99439375D02*
X140533241Y-99401280D01*
X140914194Y-99744137D02*
X140914194Y-99210803D01*
X140914194Y-99363184D02*
X140952289Y-99286994D01*
X140952289Y-99286994D02*
X140990384Y-99248899D01*
X140990384Y-99248899D02*
X141066575Y-99210803D01*
X141066575Y-99210803D02*
X141142765Y-99210803D01*
X141409432Y-99744137D02*
X141409432Y-98944137D01*
X141485622Y-99439375D02*
X141714194Y-99744137D01*
X141714194Y-99210803D02*
X141409432Y-99515565D01*
D12*
%TO.C,J2*%
X151279300Y-111492500D02*
X152549300Y-111492500D01*
X152549300Y-111492500D02*
X153184300Y-112127500D01*
X152549300Y-114032500D02*
X153184300Y-113397500D01*
X153184300Y-113397500D02*
X153184300Y-112127500D01*
X150644300Y-112127500D02*
X151279300Y-111492500D01*
X150644300Y-113397500D02*
X150644300Y-112127500D01*
X150644300Y-113397500D02*
X151279300Y-114032500D01*
X151279300Y-114032500D02*
X152549300Y-114032500D01*
X148739300Y-111492500D02*
X150009300Y-111492500D01*
X150009300Y-111492500D02*
X150644300Y-112127500D01*
X150009300Y-114032500D02*
X150644300Y-113397500D01*
X150644300Y-113397500D02*
X150644300Y-112127500D01*
X148104300Y-112127500D02*
X148739300Y-111492500D01*
X148104300Y-113397500D02*
X148104300Y-112127500D01*
X148104300Y-113397500D02*
X148739300Y-114032500D01*
X148739300Y-114032500D02*
X150009300Y-114032500D01*
X146199300Y-111492500D02*
X147469300Y-111492500D01*
X147469300Y-111492500D02*
X148104300Y-112127500D01*
X147469300Y-114032500D02*
X148104300Y-113397500D01*
X148104300Y-113397500D02*
X148104300Y-112127500D01*
X145564300Y-112127500D02*
X146199300Y-111492500D01*
X145564300Y-113397500D02*
X145564300Y-112127500D01*
X145564300Y-113397500D02*
X146199300Y-114032500D01*
X146199300Y-114032500D02*
X147469300Y-114032500D01*
%TO.C,J1*%
X158708730Y-98142560D02*
X158708730Y-96872560D01*
X158708730Y-96872560D02*
X159343730Y-96237560D01*
X160613730Y-96237560D02*
X161248730Y-96872560D01*
X159343730Y-96237560D02*
X160613730Y-96237560D01*
X158708730Y-98142560D02*
X159343730Y-98777560D01*
X159343730Y-98777560D02*
X160613730Y-98777560D01*
X160613730Y-98777560D02*
X161248730Y-98142560D01*
X161248730Y-98142560D02*
X161248730Y-96872560D01*
X158708730Y-100682560D02*
X158708730Y-99412560D01*
X158708730Y-99412560D02*
X159343730Y-98777560D01*
X160613730Y-98777560D02*
X161248730Y-99412560D01*
X159343730Y-98777560D02*
X160613730Y-98777560D01*
X158708730Y-100682560D02*
X159343730Y-101317560D01*
X159343730Y-101317560D02*
X160613730Y-101317560D01*
X160613730Y-101317560D02*
X161248730Y-100682560D01*
X161248730Y-100682560D02*
X161248730Y-99412560D01*
X158708730Y-103222560D02*
X158708730Y-101952560D01*
X158708730Y-101952560D02*
X159343730Y-101317560D01*
X160613730Y-101317560D02*
X161248730Y-101952560D01*
X159343730Y-101317560D02*
X160613730Y-101317560D01*
X158708730Y-103222560D02*
X159343730Y-103857560D01*
X159343730Y-103857560D02*
X160613730Y-103857560D01*
X160613730Y-103857560D02*
X161248730Y-103222560D01*
X161248730Y-103222560D02*
X161248730Y-101952560D01*
X158708730Y-105762560D02*
X158708730Y-104492560D01*
X158708730Y-104492560D02*
X159343730Y-103857560D01*
X160613730Y-103857560D02*
X161248730Y-104492560D01*
X159343730Y-103857560D02*
X160613730Y-103857560D01*
X158708730Y-105762560D02*
X159343730Y-106397560D01*
X159343730Y-106397560D02*
X160613730Y-106397560D01*
X160613730Y-106397560D02*
X161248730Y-105762560D01*
X161248730Y-105762560D02*
X161248730Y-104492560D01*
X158708730Y-108302560D02*
X158708730Y-107032560D01*
X158708730Y-107032560D02*
X159343730Y-106397560D01*
X160613730Y-106397560D02*
X161248730Y-107032560D01*
X159343730Y-106397560D02*
X160613730Y-106397560D01*
X158708730Y-108302560D02*
X159343730Y-108937560D01*
X159343730Y-108937560D02*
X160613730Y-108937560D01*
X160613730Y-108937560D02*
X161248730Y-108302560D01*
X161248730Y-108302560D02*
X161248730Y-107032560D01*
X158708730Y-110842560D02*
X158708730Y-109572560D01*
X158708730Y-109572560D02*
X159343730Y-108937560D01*
X160613730Y-108937560D02*
X161248730Y-109572560D01*
X159343730Y-108937560D02*
X160613730Y-108937560D01*
X158708730Y-110842560D02*
X159343730Y-111477560D01*
X159343730Y-111477560D02*
X160613730Y-111477560D01*
X160613730Y-111477560D02*
X161248730Y-110842560D01*
X161248730Y-110842560D02*
X161248730Y-109572560D01*
D10*
%TO.C,D3*%
X156936500Y-113891100D02*
X157080930Y-113891100D01*
X156941520Y-112491100D02*
X157078000Y-112491100D01*
D13*
X157978500Y-113191100D02*
X158994500Y-112784700D01*
X158994500Y-113597500D02*
X158994500Y-112784700D01*
X157978500Y-113191100D02*
X158994500Y-113597500D01*
X157978500Y-113699100D02*
X157978500Y-112683100D01*
X157724500Y-113191100D02*
X159248500Y-113191100D01*
X156986500Y-112191100D02*
X159986500Y-112191100D01*
D10*
X156986500Y-112191100D02*
X156998830Y-112191100D01*
X156986500Y-112191100D02*
X157001520Y-112191100D01*
X156941520Y-112491100D02*
X156941520Y-112191100D01*
X157078000Y-112488920D02*
X157078000Y-112188920D01*
X156936500Y-114191100D02*
X156936500Y-113891100D01*
X157080930Y-114187430D02*
X157080930Y-113887430D01*
D13*
X156986500Y-114191100D02*
X159986500Y-114191100D01*
D10*
X159986500Y-112191100D02*
X159993840Y-112191100D01*
X160033840Y-112488920D02*
X160033840Y-112191100D01*
X160036500Y-114191100D02*
X160036500Y-113893280D01*
D14*
%TO.C,C1*%
X156538170Y-105738410D02*
X157093870Y-105738410D01*
X156533970Y-106356410D02*
X157089570Y-106356410D01*
X156815970Y-105738410D02*
X156815970Y-105579610D01*
X156815370Y-106522310D02*
X156815370Y-106363510D01*
D12*
%TO.C,R5*%
X154404010Y-110958080D02*
X154518310Y-110767580D01*
X154404010Y-110577080D02*
X154518310Y-110767580D01*
X154404010Y-110577080D02*
X154518310Y-110386580D01*
X154404010Y-110196080D02*
X154518310Y-110386580D01*
X154404010Y-110196080D02*
X154518310Y-110005580D01*
%TO.C,R4*%
X152945610Y-102537870D02*
X153059910Y-102347370D01*
X152945610Y-102156870D02*
X153059910Y-102347370D01*
X152945610Y-102156870D02*
X153059910Y-101966370D01*
X152945610Y-101775870D02*
X153059910Y-101966370D01*
X152945610Y-101775870D02*
X153059910Y-101585370D01*
%TO.C,R3*%
X146953760Y-102460770D02*
X147068060Y-102270270D01*
X146953760Y-102079770D02*
X147068060Y-102270270D01*
X146953760Y-102079770D02*
X147068060Y-101889270D01*
X146953760Y-101698770D02*
X147068060Y-101889270D01*
X146953760Y-101698770D02*
X147068060Y-101508270D01*
%TO.C,R2*%
X146135550Y-97230530D02*
X146249850Y-97040030D01*
X146135550Y-97230530D02*
X146249850Y-97421030D01*
X146135550Y-97611530D02*
X146249850Y-97421030D01*
X146135550Y-97611530D02*
X146249850Y-97802030D01*
X146135550Y-97992530D02*
X146249850Y-97802030D01*
%TO.C,R1*%
X146140850Y-96611930D02*
X146255150Y-96421430D01*
X146140850Y-96230930D02*
X146255150Y-96421430D01*
X146140850Y-96230930D02*
X146255150Y-96040430D01*
X146140850Y-95849930D02*
X146255150Y-96040430D01*
X146140850Y-95849930D02*
X146255150Y-95659430D01*
D10*
%TO.C,LED2*%
X154744070Y-101708190D02*
X156304080Y-101708190D01*
X154734070Y-102928180D02*
X156294080Y-102928180D01*
D12*
X155389780Y-102330880D02*
X155618380Y-102622980D01*
X155389780Y-102330880D02*
X155618380Y-102038780D01*
X155618380Y-102622980D02*
X155618380Y-102038780D01*
D10*
%TO.C,LED1*%
X154859970Y-113426390D02*
X154859970Y-111866390D01*
X153639970Y-113416390D02*
X153639970Y-111856390D01*
D12*
X153945170Y-112740690D02*
X154237270Y-112512090D01*
X154237270Y-112512090D02*
X154529370Y-112740690D01*
X153945170Y-112740690D02*
X154529370Y-112740690D01*
%TO.C,C2*%
X157510730Y-103407880D02*
X157764730Y-103407880D01*
X157764730Y-103547580D02*
X157764730Y-103280880D01*
X158056830Y-103547580D02*
X158056830Y-103280880D01*
X158056830Y-103407880D02*
X158310830Y-103407880D01*
D15*
%TO.C,U1*%
X146946140Y-103357100D02*
X146946140Y-103128500D01*
X146946140Y-109681700D02*
X146946140Y-109453100D01*
D16*
X146946140Y-109681700D02*
X152940540Y-109682210D01*
X152940540Y-109682210D02*
X152940540Y-103127990D01*
X146946140Y-103128500D02*
X152940540Y-103127990D01*
D17*
G36*
X154464540Y-109122900D02*
G01*
X153042140Y-109122900D01*
X153042140Y-108259300D01*
X154464540Y-108259300D01*
X154464540Y-109122900D01*
G37*
G36*
X154464540Y-104550900D02*
G01*
X153042140Y-104550900D01*
X153042140Y-103687300D01*
X154464540Y-103687300D01*
X154464540Y-104550900D01*
G37*
G36*
X153804140Y-106836900D02*
G01*
X153042140Y-106836900D01*
X153042140Y-105973300D01*
X153804140Y-105973300D01*
X153804140Y-106836900D01*
G37*
D18*
%TO.C,U2*%
X151316460Y-96715530D02*
G75*
G02*
X151016240Y-96715530I-150110J0D01*
G01*
X151016240Y-96715530D02*
G75*
G02*
X151316460Y-96715530I150110J0D01*
G01*
X149210290Y-95948200D02*
G75*
G02*
X148910070Y-95948200I-150110J0D01*
G01*
X148910070Y-95948200D02*
G75*
G02*
X149210290Y-95948200I150110J0D01*
G01*
D12*
X150413870Y-95981830D02*
X154766670Y-95981830D01*
X154766670Y-101259240D02*
X154766670Y-95981830D01*
X150413870Y-101259240D02*
X154766670Y-101259240D01*
X150413870Y-101259240D02*
X150413870Y-95981830D01*
D19*
%TO.C,D1*%
X144130990Y-98990490D02*
X145490240Y-98990490D01*
D12*
X144130990Y-100507850D02*
X145531040Y-100507850D01*
X145531040Y-100507850D02*
X145531040Y-98672130D01*
X144130990Y-100507850D02*
X144130990Y-98672130D01*
X144130990Y-98672130D02*
X145531040Y-98672130D01*
D17*
G36*
X145543480Y-98918320D02*
G01*
X144143430Y-98918320D01*
X144143430Y-98718420D01*
X145543480Y-98718420D01*
X145543480Y-98918320D01*
G37*
D19*
%TO.C,D2*%
X149513590Y-102858690D02*
X149513590Y-101499450D01*
D12*
X151030950Y-102858690D02*
X151030950Y-101458640D01*
X149195230Y-101458640D02*
X151030950Y-101458640D01*
X149195230Y-102858690D02*
X151030950Y-102858690D01*
X149195230Y-102858690D02*
X149195230Y-101458640D01*
D17*
G36*
X149441420Y-102846260D02*
G01*
X149241520Y-102846260D01*
X149241520Y-101446210D01*
X149441420Y-101446210D01*
X149441420Y-102846260D01*
G37*
%TD*%
M02*
