%TF.GenerationSoftware,KiCad,Pcbnew,8.0.8+dfsg-1*%
%TF.CreationDate,2025-02-13T13:44:35+01:00*%
%TF.ProjectId,DigiKitkat,44696769-4b69-4746-9b61-742e6b696361,rev?*%
%TF.SameCoordinates,Original*%
%TF.FileFunction,Other,User*%
%FSLAX46Y46*%
G04 Gerber Fmt 4.6, Leading zero omitted, Abs format (unit mm)*
G04 Created by KiCad (PCBNEW 8.0.8+dfsg-1) date 2025-02-13 13:44:35*
%MOMM*%
%LPD*%
G01*
G04 APERTURE LIST*
%ADD10C,0.101600*%
%ADD11C,0.000000*%
G04 APERTURE END LIST*
D10*
%TO.C,C1*%
X156416330Y-105402010D02*
X157178330Y-105402010D01*
X156441220Y-106721790D02*
X157178330Y-106721790D01*
D11*
G36*
X156455190Y-106785800D02*
G01*
X155705130Y-106785800D01*
X155705130Y-105335720D01*
X156455190Y-105335720D01*
X156455190Y-106785800D01*
G37*
G36*
X157902990Y-106785800D02*
G01*
X157152930Y-106785800D01*
X157152930Y-105335720D01*
X157902990Y-105335720D01*
X157902990Y-106785800D01*
G37*
%TO.C,R5*%
G36*
X154090900Y-110913040D02*
G01*
X153684500Y-110913040D01*
X153684500Y-110049440D01*
X154090900Y-110049440D01*
X154090900Y-110913040D01*
G37*
G36*
X155360900Y-110913040D02*
G01*
X154954500Y-110913040D01*
X154954500Y-110049440D01*
X155360900Y-110049440D01*
X155360900Y-110913040D01*
G37*
%TO.C,R4*%
G36*
X152509410Y-102494010D02*
G01*
X152103010Y-102494010D01*
X152103010Y-101630410D01*
X152509410Y-101630410D01*
X152509410Y-102494010D01*
G37*
G36*
X153779410Y-102494010D02*
G01*
X153373010Y-102494010D01*
X153373010Y-101630410D01*
X153779410Y-101630410D01*
X153779410Y-102494010D01*
G37*
%TO.C,R3*%
G36*
X146640660Y-102415740D02*
G01*
X146234260Y-102415740D01*
X146234260Y-101552140D01*
X146640660Y-101552140D01*
X146640660Y-102415740D01*
G37*
G36*
X147910660Y-102415740D02*
G01*
X147504260Y-102415740D01*
X147504260Y-101552140D01*
X147910660Y-101552140D01*
X147910660Y-102415740D01*
G37*
%TO.C,R2*%
G36*
X147092440Y-97947490D02*
G01*
X146686040Y-97947490D01*
X146686040Y-97083890D01*
X147092440Y-97083890D01*
X147092440Y-97947490D01*
G37*
G36*
X145822440Y-97947490D02*
G01*
X145416040Y-97947490D01*
X145416040Y-97083890D01*
X145822440Y-97083890D01*
X145822440Y-97947490D01*
G37*
%TO.C,R1*%
G36*
X145827740Y-96566900D02*
G01*
X145421340Y-96566900D01*
X145421340Y-95703300D01*
X145827740Y-95703300D01*
X145827740Y-96566900D01*
G37*
G36*
X147097740Y-96566900D02*
G01*
X146691340Y-96566900D01*
X146691340Y-95703300D01*
X147097740Y-95703300D01*
X147097740Y-96566900D01*
G37*
D10*
%TO.C,LED2*%
X155053990Y-101918130D02*
X155954160Y-101918130D01*
X155053990Y-102718230D02*
X155954160Y-102718230D01*
D11*
G36*
X156353960Y-102768270D02*
G01*
X155954160Y-102768270D01*
X155954160Y-101868100D01*
X156353960Y-101868100D01*
X156353960Y-102768270D01*
G37*
G36*
X155053990Y-102768270D02*
G01*
X154654190Y-102768270D01*
X154654190Y-101868100D01*
X155053990Y-101868100D01*
X155053990Y-102768270D01*
G37*
D10*
%TO.C,LED1*%
X154650020Y-113076480D02*
X154650020Y-112176300D01*
X153849920Y-113076480D02*
X153849920Y-112176300D01*
D11*
G36*
X154700060Y-113476270D02*
G01*
X153799880Y-113476270D01*
X153799880Y-113076480D01*
X154700060Y-113076480D01*
X154700060Y-113476270D01*
G37*
G36*
X154700060Y-112176300D02*
G01*
X153799880Y-112176300D01*
X153799880Y-111776510D01*
X154700060Y-111776510D01*
X154700060Y-112176300D01*
G37*
%TD*%
M02*
